<?xml version="1.0" encoding="UTF-8"?>
<svg id="Layer_2" data-name="Layer 2" xmlns="http://www.w3.org/2000/svg" viewBox="0 0 555.24 555.24">
  <defs>
    <style>
      .cls-1 {
        fill: #043231;
        stroke: #fbf9f3;
        stroke-miterlimit: 10;
        stroke-width: .96px;
      }

      .cls-2 {
        fill: #00af67;
      }

      .cls-3 {
        fill: #fbf9f3;
      }
    </style>
  </defs>
  <g id="DESIGNED_BY_Kim_Zamorano" data-name="DESIGNED BY Kim Zamorano">
    <g>
      <circle class="cls-3" cx="277.62" cy="277.62" r="277.62"/>
      <path class="cls-2" d="M277.2,511.94c62.59.11,121.47-24.15,165.81-68.33,44.34-44.18,68.82-102.98,68.93-165.56.11-62.59-24.15-121.47-68.33-165.81-44.18-44.34-102.97-68.82-165.56-68.93-62.59-.11-121.47,24.15-165.81,68.33-44.34,44.18-68.82,102.98-68.93,165.56-.11,62.59,24.15,121.47,68.33,165.81,44.18,44.34,102.98,68.82,165.56,68.93ZM278.03,51.3c60.45.11,117.24,23.75,159.91,66.58,42.67,42.82,66.11,99.7,66,160.15-.11,60.45-23.75,117.24-66.58,159.91-42.82,42.67-99.7,66.11-160.15,66-60.45-.11-117.24-23.75-159.91-66.58-42.67-42.82-66.11-99.7-66-160.15.11-60.45,23.75-117.24,66.58-159.91,42.82-42.67,99.7-66.11,160.15-66Z"/>
      <g>
        <path class="cls-1" d="M317.96,305.86c-2.48,0-4.48,2.01-4.48,4.48v30.93c0,12.36-10.05,22.41-22.41,22.41h-48.39c-2.47,0-4.48,2-4.48,4.48v8.91s-10.7-10.7-10.7-10.7c-.69-1.59-2.28-2.69-4.11-2.69h-29.12c-12.36,0-22.41-10.05-22.41-22.41v-69.03c0-12.36,10.05-22.41,22.41-22.41h45.27c2.48,0,4.48-2.01,4.48-4.48s-2.01-4.48-4.48-4.48h-45.27c-17.3,0-31.38,14.07-31.38,31.38v69.03c0,17.3,14.07,31.38,31.38,31.38h26.83l18.41,18.41c.86.86,2,1.31,3.17,1.31.58,0,1.16-.11,1.71-.34,1.67-.69,2.77-2.33,2.77-4.14v-15.24h43.93c17.3,0,31.38-14.07,31.38-31.38v-30.93c0-2.48-2.01-4.48-4.48-4.48Z"/>
        <path class="cls-1" d="M327.22,162.87h-11.34c-35.92,0-65.15,29.22-65.15,65.15s29.22,65.15,65.15,65.15h11.34c5.61,0,11.16-.71,16.53-2.12l16.76,16.75c.86.86,2,1.31,3.17,1.31.58,0,1.16-.11,1.71-.34,1.67-.69,2.77-2.33,2.77-4.14v-25.93c7.09-5.75,12.99-13,17.12-21.11,4.7-9.21,7.08-19.15,7.08-29.56,0-35.92-29.22-65.15-65.15-65.15ZM360.98,272.93c-1.12.85-1.79,2.17-1.79,3.58v17.3l-10.97-10.96c-.85-.85-2-1.31-3.17-1.31-.44,0-.88.06-1.32.2-5.34,1.64-10.89,2.47-16.52,2.47h-11.34c-30.98,0-56.18-25.2-56.18-56.18s25.2-56.18,56.18-56.18h11.34c30.98,0,56.18,25.2,56.18,56.18,0,17.81-8.17,34.18-22.42,44.91Z"/>
        <path class="cls-1" d="M341.73,211.92c-.65-9.38-8.21-16.95-17.59-17.59-5.32-.37-10.4,1.43-14.28,5.06-3.83,3.58-6.03,8.63-6.03,13.87,0,2.48,2.01,4.48,4.48,4.48s4.48-2.01,4.48-4.48c0-2.81,1.13-5.41,3.18-7.32,2.05-1.91,4.73-2.86,7.55-2.67,4.94.34,8.93,4.32,9.27,9.27.34,4.99-2.93,9.4-7.79,10.49-3.93.88-6.68,4.3-6.68,8.31v10.77c0,2.48,2.01,4.48,4.48,4.48s4.48-2.01,4.48-4.48v-10.41c9.03-2.18,15.09-10.45,14.45-19.78Z"/>
        <path class="cls-1" d="M325.97,256.67c-.83-.83-1.99-1.31-3.17-1.31s-2.34.48-3.17,1.31c-.83.83-1.31,1.99-1.31,3.17s.48,2.34,1.31,3.17c.83.83,1.99,1.31,3.17,1.31s2.34-.48,3.17-1.31c.83-.84,1.31-1.99,1.31-3.17s-.48-2.34-1.31-3.17Z"/>
        <path class="cls-1" d="M286.13,301.82h-94.57c-2.48,0-4.48,2.01-4.48,4.48s2.01,4.48,4.48,4.48h94.57c2.48,0,4.48-2.01,4.48-4.48s-2.01-4.48-4.48-4.48Z"/>
        <path class="cls-1" d="M289.3,328.24c-.83-.83-1.99-1.31-3.17-1.31s-2.34.48-3.17,1.31c-.83.83-1.31,1.99-1.31,3.17s.48,2.34,1.31,3.17c.83.83,1.99,1.31,3.17,1.31s2.34-.48,3.17-1.31c.83-.83,1.31-1.99,1.31-3.17s-.48-2.34-1.31-3.17Z"/>
        <path class="cls-1" d="M268.5,326.92h-76.94c-2.48,0-4.48,2.01-4.48,4.48s2.01,4.48,4.48,4.48h76.94c2.48,0,4.48-2.01,4.48-4.48s-2.01-4.48-4.48-4.48Z"/>
        <path class="cls-1" d="M257,276.72h-65.44c-2.48,0-4.48,2.01-4.48,4.48s2.01,4.48,4.48,4.48h65.44c2.48,0,4.48-2.01,4.48-4.48s-2.01-4.48-4.48-4.48Z"/>
      </g>
    </g>
  </g>
</svg>