<?xml version="1.0" encoding="UTF-8"?>
<svg id="Layer_2" data-name="Layer 2" xmlns="http://www.w3.org/2000/svg" viewBox="0 0 985.42 985.42">
  <defs>
    <style>
      .cls-1 {
        fill: #043231;
      }

      .cls-2 {
        fill: #00af67;
      }

      .cls-3 {
        fill: #fbf9f3;
      }
    </style>
  </defs>
  <g id="DESIGNED_BY_Kim_Zamorano" data-name="DESIGNED BY Kim Zamorano">
    <g>
      <circle class="cls-1" cx="492.71" cy="492.71" r="492.71"/>
      <g>
        <g>
          <g>
            <path class="cls-3" d="M270.89,312.21l-45.37,112.36-45.37-112.36h-40.92l70.01,169.2h32.47l70.1-169.2h-40.92Z"/>
            <path class="cls-3" d="M322.93,354.46v126.95h35.23v-126.95h-35.23Z"/>
            <path class="cls-3" d="M433.33,350.73c-38.96,0-65.74,30.07-65.74,67.25v63.43h35.23v-63.43c0-18.06,13.52-32.92,31.05-34.96v-32.29h-.53Z"/>
            <path class="cls-3" d="M513.75,384.62v-30.16h-35.23v-42.26h-35.23v105.77c0,37.1,26.78,67.25,65.83,67.25h4.63v-32.03c-19.48,0-35.23-15.75-35.23-35.23v-33.36h35.23Z"/>
            <path class="cls-3" d="M616.77,354.46v63.52c0,19.48-9.61,35.23-29.18,35.23s-29.09-15.75-29.09-35.23v-63.52h-35.32v63.52c0,37.1,25.44,67.25,64.41,67.25s64.5-30.16,64.5-67.25v-63.52h-35.32Z"/>
            <path class="cls-3" d="M725.65,406.68c-13.61-1.6-29.18-7.56-29.18-15.03,0-8.45,7.3-11.3,15.03-11.3s15.13,2.85,15.13,13.61h35.23c0-27.22-23.04-43.24-50.35-43.24s-50.26,16.01-50.26,41.81c0,20.02,23.75,35.05,48.39,38.16,10.59,1.33,18.33,6.76,18.33,12.63,0,8.27-8.63,12.28-16.46,12.28s-16.46-2.85-16.46-13.7h-35.23c0,27.31,24.46,43.32,51.69,43.32s51.78-16.01,51.78-43.32c0-21.35-19.04-33.09-37.63-35.23Z"/>
          </g>
          <path class="cls-2" d="M337.95,312.21h20.21v17.34c0,8.29-6.73,15.02-15.02,15.02h-20.21v-17.34c0-8.29,6.73-15.02,15.02-15.02Z" transform="translate(681.09 656.77) rotate(180)"/>
        </g>
        <g>
          <path class="cls-3" d="M226.5,570.2v27.31h58.09c-5.96,23.93-27.31,41.81-53.2,41.81-30.07,0-54.53-24.46-54.53-54.53s24.46-54.53,54.53-54.53c15.75,0,32.2,6.85,42.35,17.35h43.77c-14.86-30.25-48.93-51.24-86.11-51.24-50.97,0-92.16,39.5-92.16,88.43s41.19,88.43,92.16,88.43c58.53,0,92.16-44.21,92.16-94.03v-8.99h-97.06Z"/>
          <path class="cls-3" d="M400.06,538.7c-39.05,0-65.83,30.07-65.83,67.25v63.43h35.23v-63.43c0-19.48,15.75-35.23,35.32-35.23v-32.03h-4.72Z"/>
          <path class="cls-3" d="M555.3,605.96c0-37.18-31.49-67.25-70.55-67.25s-70.55,30.07-70.55,67.25,31.58,67.25,70.55,67.25c31.05,0,57.38-19.04,66.81-45.64h-39.05c-6.32,8.27-16.46,13.61-27.75,13.61-15.21,0-27.93-9.61-33.1-23.04h102.48c.71-4,1.16-8.01,1.16-12.19ZM451.66,593.68c5.16-13.34,17.88-22.95,33.1-22.95s28.02,9.61,33.18,22.95h-66.28Z"/>
          <path class="cls-3" d="M705.1,605.96c0-37.18-31.49-67.25-70.55-67.25s-70.55,30.07-70.55,67.25,31.58,67.25,70.55,67.25c31.05,0,57.38-19.04,66.81-45.64h-39.05c-6.32,8.27-16.46,13.61-27.76,13.61-15.3,0-27.93-9.61-33.09-23.04h102.48c.71-4,1.16-8.01,1.16-12.19ZM601.47,593.68c5.16-13.34,17.79-22.95,33.09-22.95s28.02,9.61,33.18,22.95h-66.28Z"/>
          <path class="cls-3" d="M780.37,538.7c-38.97,0-65.83,30.07-65.83,67.25v63.43h35.32v-63.43c0-19.48,11.03-35.23,30.52-35.23s30.6,15.75,30.6,35.23v63.43h35.23v-63.43c0-37.18-26.78-67.25-65.83-67.25Z"/>
        </g>
      </g>
    </g>
  </g>
</svg>