<?xml version="1.0" encoding="UTF-8"?>
<svg id="Layer_2" data-name="Layer 2" xmlns="http://www.w3.org/2000/svg" viewBox="0 0 821.41 419.44">
  <defs>
    <style>
      .cls-1 {
        fill: #043231;
      }

      .cls-2 {
        fill: #00af67;
      }
    </style>
  </defs>
  <g id="DESIGNED_BY_Kim_Zamorano" data-name="DESIGNED BY Kim Zamorano">
    <g>
      <g>
        <g>
          <path class="cls-1" d="M152.97,0l-52.71,130.54L47.55,0H0l81.35,196.59h37.73L200.52,0h-47.55Z"/>
          <path class="cls-1" d="M213.44,49.1v147.5h40.93V49.1h-40.93Z"/>
          <path class="cls-1" d="M341.71,44.75c-45.27,0-76.38,34.94-76.38,78.14v73.7h40.93v-73.7c0-20.98,15.71-38.24,36.07-40.62v-37.52h-.62Z"/>
          <path class="cls-1" d="M435.15,84.13v-35.04h-40.93V0h-40.93v122.9c0,43.1,31.11,78.14,76.49,78.14h5.37v-37.21c-22.64,0-40.93-18.3-40.93-40.93v-38.76h40.93Z"/>
          <path class="cls-1" d="M554.84,49.1v73.8c0,22.64-11.16,40.93-33.9,40.93s-33.8-18.3-33.8-40.93V49.1h-41.03v73.8c0,43.1,29.56,78.14,74.83,78.14s74.94-35.04,74.94-78.14V49.1h-41.03Z"/>
          <path class="cls-1" d="M681.36,109.77c-15.81-1.86-33.9-8.78-33.9-17.47,0-9.82,8.48-13.13,17.47-13.13s17.57,3.31,17.57,15.81h40.93c0-31.63-26.77-50.23-58.5-50.23s-58.4,18.61-58.4,48.58c0,23.26,27.6,40.72,56.23,44.34,12.3,1.55,21.29,7.85,21.29,14.68,0,9.61-10.03,14.26-19.12,14.26s-19.12-3.31-19.12-15.92h-40.93c0,31.73,28.42,50.34,60.05,50.34s60.16-18.61,60.16-50.34c0-24.81-22.12-38.45-43.72-40.93Z"/>
        </g>
        <path class="cls-2" d="M230.89,0h23.48v20.15c0,9.63-7.82,17.45-17.45,17.45h-23.48v-20.15c0-9.63,7.82-17.45,17.45-17.45Z" transform="translate(467.81 37.59) rotate(180)"/>
      </g>
      <g>
        <path class="cls-1" d="M101.4,299.75v31.73h67.5c-6.92,27.8-31.73,48.58-61.81,48.58-34.94,0-63.36-28.42-63.36-63.36s28.42-63.36,63.36-63.36c18.3,0,37.42,7.96,49.2,20.15h50.85c-17.26-35.14-56.85-59.53-100.05-59.53C47.86,213.96,0,259.85,0,316.7s47.86,102.74,107.08,102.74c68.01,0,107.08-51.37,107.08-109.25v-10.44h-112.77Z"/>
        <path class="cls-1" d="M303.06,263.16c-45.37,0-76.49,34.94-76.49,78.14v73.7h40.93v-73.7c0-22.64,18.3-40.93,41.03-40.93v-37.21h-5.48Z"/>
        <path class="cls-1" d="M483.42,341.3c0-43.2-36.59-78.14-81.96-78.14s-81.97,34.94-81.97,78.14,36.69,78.14,81.97,78.14c36.07,0,66.67-22.12,77.62-53.02h-45.38c-7.34,9.61-19.12,15.81-32.25,15.81-17.67,0-32.46-11.16-38.45-26.77h119.07c.83-4.65,1.35-9.3,1.35-14.16ZM363.01,327.04c6-15.5,20.78-26.67,38.45-26.67s32.56,11.16,38.55,26.67h-77.01Z"/>
        <path class="cls-1" d="M657.48,341.3c0-43.2-36.59-78.14-81.96-78.14s-81.96,34.94-81.96,78.14,36.69,78.14,81.96,78.14c36.07,0,66.67-22.12,77.62-53.02h-45.37c-7.34,9.61-19.12,15.81-32.25,15.81-17.78,0-32.46-11.16-38.45-26.77h119.07c.83-4.65,1.34-9.3,1.34-14.16ZM537.07,327.04c5.99-15.5,20.67-26.67,38.45-26.67s32.56,11.16,38.55,26.67h-77Z"/>
        <path class="cls-1" d="M744.93,263.16c-45.27,0-76.49,34.94-76.49,78.14v73.7h41.03v-73.7c0-22.64,12.82-40.93,35.45-40.93s35.56,18.3,35.56,40.93v73.7h40.93v-73.7c0-43.2-31.11-78.14-76.49-78.14Z"/>
      </g>
    </g>
  </g>
</svg>