<?xml version="1.0" encoding="UTF-8"?>
<svg id="Layer_2" data-name="Layer 2" xmlns="http://www.w3.org/2000/svg" xmlns:xlink="http://www.w3.org/1999/xlink" viewBox="0 0 212.04 212.04">
  <defs>
    <style>
      .cls-1 {
        fill: none;
      }

      .cls-2 {
        fill: #00af67;
      }

      .cls-3 {
        clip-path: url(#clippath);
      }
    </style>
    <clipPath id="clippath">
      <rect class="cls-1" width="212.04" height="212.04"/>
    </clipPath>
  </defs>
  <g id="DESIGNED_BY_Kim_Zamorano" data-name="DESIGNED BY Kim Zamorano">
    <g class="cls-3">
      <path class="cls-2" d="M14.72,153.96v-2.85c1.17-1.35,2.4-2.51,4.3-2.88,14.98-2.97,25-12.52,32.56-25.05,6.35-10.54,5.33-12.95-6.38-17.1-.67-.24-1.36-.43-2.02-.7-2.53-1.04-5.03-2.15-7.12-3.97-5.24-4.56-2.14-11.12,4.04-12.61,4.52-1.09,8.46,1.82,12.84,2.37,2.93.37,4.1-.62,3.74-3.74-.93-8.04-.9-16.13-.52-24.2.72-15.4,8.29-27.12,21.12-34.73,18.73-11.1,38.31-11.24,57.17-.17,11.77,6.91,19.37,17.36,21.02,31.38,1.07,9.12.65,18.26-.07,27.39-.31,3.96.5,4.69,4.42,3.78,4.87-1.14,8.95-3.65,14.01-1.43,2.71,1.19,5.07,3.75,4.99,6.7-.05,2.02-1.23,3.89-2.76,5.22-2.34,2.04-5.39,3.17-8.22,4.32-2.2.89-4.49,1.58-6.63,2.59-4.42,2.07-5.7,4.81-3.62,9.19,7.17,15.15,17.7,26.65,34.73,30.64,2.08.49,3.74,1.34,5.01,3.02v2.85c-1.61,3.32-4.5,5.15-7.78,6.39-3.33,1.26-6.67,2.67-10.25,2.9-4.94.32-7.53,2.47-8.29,7.61-.72,4.89-2.19,5.58-7.17,5.18-1.18-.1-2.35-.31-3.52-.52-9.76-1.73-18.93-.75-26.95,5.74-1.57,1.26-3.31,2.32-5,3.42-13.68,8.87-27.68,9.89-41.97,1.56-3.89-2.27-7.59-4.89-11.36-7.36-3.13-2.04-6.49-3.19-10.24-3.75-5.92-.9-11.59.43-17.36,1.07-2.96.33-5.82-.52-5.99-3.58-.4-7.38-4.93-9.19-11.14-9.87-2.89-.32-5.75-1.49-8.48-2.63-2.98-1.24-5.68-3.01-7.1-6.15Z"/>
    </g>
  </g>
</svg>