<?xml version="1.0" encoding="UTF-8"?>
<svg id="Layer_2" data-name="Layer 2" xmlns="http://www.w3.org/2000/svg" viewBox="0 0 555.24 555.24">
  <defs>
    <style>
      .cls-1 {
        fill: #043231;
        stroke: #fbf9f3;
        stroke-miterlimit: 10;
        stroke-width: .96px;
      }

      .cls-2 {
        fill: #00af67;
      }

      .cls-3 {
        fill: #fbf9f3;
      }
    </style>
  </defs>
  <g id="DESIGNED_BY_Kim_Zamorano" data-name="DESIGNED BY Kim Zamorano">
    <g>
      <circle class="cls-3" cx="277.62" cy="277.62" r="277.62"/>
      <path class="cls-2" d="M277.2,511.93c62.59.11,121.47-24.15,165.81-68.33,44.34-44.18,68.82-102.98,68.93-165.56.11-62.59-24.15-121.47-68.33-165.81-44.18-44.34-102.98-68.82-165.56-68.93-62.59-.11-121.47,24.15-165.81,68.33-44.34,44.18-68.82,102.98-68.93,165.56-.11,62.59,24.15,121.47,68.33,165.81,44.18,44.34,102.98,68.82,165.56,68.93ZM278.03,51.3c60.45.11,117.24,23.75,159.91,66.58,42.67,42.82,66.11,99.7,66,160.15-.11,60.45-23.75,117.24-66.58,159.91-42.82,42.67-99.7,66.11-160.15,66-60.45-.11-117.24-23.75-159.91-66.58-42.67-42.82-66.11-99.7-66-160.15.11-60.45,23.75-117.24,66.58-159.91,42.82-42.67,99.7-66.11,160.15-66Z"/>
      <g>
        <path class="cls-1" d="M386.61,239.4l-70.78-70.78c-7.66-7.66-20.13-7.66-27.79,0l-110.45,110.45c-3.83,3.83-5.75,8.86-5.75,13.89s1.92,10.06,5.75,13.89l17.76,17.76-19.5,19.5c-.88.88-1.31,2.02-1.31,3.17s.44,2.29,1.31,3.17c1.75,1.75,4.59,1.75,6.34,0l19.5-19.5,8.12,8.12-45.62,45.62c-.88.87-1.31,2.02-1.31,3.17s.44,2.29,1.31,3.17c1.75,1.75,4.59,1.75,6.34,0l45.62-45.62,32.22,32.22c7.66,7.66,20.13,7.66,27.79,0l110.45-110.45c3.71-3.71,5.75-8.64,5.75-13.89s-2.04-10.18-5.75-13.89ZM259,373.91c-1.57-.5-3.05-1.37-4.3-2.61l-70.77-70.78c-2.79-2.79-3.7-6.76-2.75-10.33h77.82v83.71ZM242.8,281.23l13.29-13.29c1.75-1.75,1.75-4.59,0-6.34s-4.59-1.75-6.34,0l-19.63,19.63h-13.06l40.52-40.52c1.75-1.75,1.75-4.59,0-6.34-1.75-1.75-4.59-1.75-6.34,0l-46.86,46.86h-16.28l102.09-102.09v91.41c0,5.89-4.79,10.68-10.68,10.68h-36.72ZM380.27,260.85l-110.45,110.45c-.57.57-1.19,1.05-1.85,1.47v-82.57h11.55c10.83,0,19.65-8.81,19.65-19.65v-11.55h51.38l-25.94,25.94c-.87.87-1.31,2.02-1.31,3.17s.44,2.29,1.31,3.17c1.75,1.75,4.59,1.75,6.34,0l32.27-32.27s0,0,0,0h18.52c-.42.66-.91,1.28-1.48,1.85ZM299.17,250.04v-77.82c3.57-.95,7.53-.04,10.33,2.75l70.78,70.78c1.22,1.22,2.11,2.69,2.62,4.3h-83.72Z"/>
        <path class="cls-1" d="M268.56,223.41c-.83-.84-1.99-1.31-3.17-1.31s-2.34.48-3.17,1.31c-.83.83-1.31,1.99-1.31,3.17s.48,2.34,1.31,3.17c.83.83,1.99,1.31,3.17,1.31s2.34-.48,3.17-1.31,1.31-1.99,1.31-3.17c0-1.18-.48-2.34-1.31-3.17Z"/>
        <path class="cls-1" d="M170.54,355.76c-.83-.83-1.99-1.31-3.17-1.31s-2.34.48-3.17,1.31c-.83.83-1.31,1.99-1.31,3.17s.48,2.34,1.31,3.17c.83.83,1.99,1.31,3.17,1.31s2.34-.48,3.17-1.31c.84-.83,1.31-1.99,1.31-3.17s-.48-2.34-1.31-3.17Z"/>
        <path class="cls-1" d="M219.81,364.35c-1.75-1.75-4.59-1.75-6.34,0l-20.36,20.36c-.87.87-1.31,2.02-1.31,3.17s.44,2.29,1.31,3.17c1.75,1.75,4.59,1.75,6.34,0l20.36-20.36c1.75-1.75,1.75-4.59,0-6.34Z"/>
      </g>
    </g>
  </g>
</svg>