<?xml version="1.0" encoding="UTF-8"?>
<svg id="Layer_2" data-name="Layer 2" xmlns="http://www.w3.org/2000/svg" viewBox="0 0 555.24 555.24">
  <defs>
    <style>
      .cls-1 {
        fill: #043231;
      }

      .cls-2 {
        fill: #00af67;
      }

      .cls-3 {
        fill: #fbf9f3;
      }
    </style>
  </defs>
  <g id="DESIGNED_BY_Kim_Zamorano" data-name="DESIGNED BY Kim Zamorano">
    <g>
      <circle class="cls-3" cx="277.62" cy="277.62" r="277.62"/>
      <path class="cls-2" d="M277.2,511.93c62.59.11,121.47-24.15,165.81-68.33,44.34-44.18,68.82-102.98,68.93-165.56.11-62.59-24.15-121.47-68.33-165.81-44.18-44.34-102.98-68.82-165.56-68.93-62.59-.11-121.47,24.15-165.81,68.33-44.34,44.18-68.82,102.98-68.93,165.56-.11,62.59,24.15,121.47,68.33,165.81,44.18,44.34,102.98,68.82,165.56,68.93ZM278.03,51.3c60.45.11,117.24,23.75,159.91,66.58,42.67,42.82,66.11,99.7,66,160.15-.11,60.45-23.75,117.24-66.58,159.91-42.82,42.67-99.7,66.11-160.15,66-60.45-.11-117.24-23.75-159.91-66.58-42.67-42.82-66.11-99.7-66-160.15.11-60.45,23.75-117.24,66.58-159.91,42.82-42.67,99.7-66.11,160.15-66Z"/>
      <path class="cls-1" d="M370.68,294.32c.52-.74.82-1.6.82-2.61,0-4.24-5.45-5.96-9.55-6.88-4.22-.94-9.62-1.52-15.42-1.65v-20.48c0-8.8-2.17-16.38-6.84-23.85-10-15.98-14.67-39.74-18.75-64.98h.65c1.7,0,3.09-1.39,3.09-3.09v-9.35c0-4.38-3.57-7.95-7.95-7.95h-17.5c-4.38,0-7.95,3.57-7.95,7.95v9.35c0,1.7,1.39,3.09,3.09,3.09h.78c-3.46,32.89-8.72,54.54-16.06,66.16-1.46,2.31-2.67,4.63-3.66,6.99h-11.57c-2.16-5.14-7.3-9.79-13.58-9.79s-11.04,4.61-13.09,9.79h-16.77v-46.29c0-5.49-4.47-9.95-9.95-9.95h-11.66c-4.81,0-8.92,3.43-9.79,8.16-5.29,28.86-10.82,62.38-11.73,92.19-.96,31.63,3.31,55.88,13.08,74.12.54,1,1.59,1.63,2.72,1.63h80.02c2.34,6.5,8.57,11.16,15.86,11.16h19.22c3.37,13.59,15.67,23.7,30.29,23.7h8.37c17.21,0,31.21-14,31.21-31.21v-59.68c.01-6.33-2.75-12.36-7.4-16.54h0ZM363.69,291.71c-3.17,1.12-9.85,2.37-19.66,2.37s-16.49-1.25-19.66-2.37c3.17-1.12,9.85-2.37,19.66-2.37s16.49,1.25,19.66,2.37h0ZM297.45,161.44c0-.96.81-1.77,1.77-1.77h17.5c.96,0,1.77.81,1.77,1.77v6.26h-21.04v-6.26ZM198.81,196.98h11.66c2.08,0,3.77,1.69,3.77,3.77v6.78h-20.49c.45-2.5.9-4.99,1.35-7.46.33-1.82,1.85-3.09,3.7-3.09ZM192.65,213.71h21.59v36.41c0,1.7,1.39,3.09,3.09,3.09h22.13c1.44,0,2.69-1,3.01-2.4.82-3.58,3.83-7.39,7.81-7.39s7.51,3.82,8.33,7.39c.32,1.41,1.57,2.4,3.01,2.4h11.77c-.84,3.45-1.25,7.03-1.25,10.84v81.77h-82.99c-10.69-35.9-4.64-85.45,3.51-132.12h0ZM191.21,352.01h80.93v8.7h-77.16c-1.4-2.78-2.65-5.69-3.77-8.7ZM288.98,371.87c-5.89,0-10.67-4.78-10.67-10.67v-97.14c0-7.65,1.91-14.24,6-20.72,7.9-12.51,13.48-35.25,17.05-69.46h13.31c4.22,26.26,9.03,51.1,19.77,68.25,4.03,6.44,5.9,12.98,5.9,20.57v20.51c-5.35.18-10.3.73-14.23,1.61-4.1.92-9.55,2.63-9.55,6.88,0,.36.04.69.11,1.01-5.86,4.14-9.38,10.84-9.38,18.13v59.68c0,.45.02.89.04,1.33h-18.34ZM371.9,370.53c0,13.8-11.23,25.03-25.03,25.03h-8.37c-13.8,0-25.03-11.23-25.03-25.03v-59.68c0-5.67,2.96-10.84,7.78-13.75,1.57.67,3.32,1.13,4.87,1.48,4.82,1.08,11.18,1.67,17.91,1.67s13.09-.59,17.91-1.67c1-.23,2.09-.49,3.15-.84,4.23,3,6.81,7.92,6.81,13.11v59.67h.01ZM325.17,329.42v16.29c0,1.7-1.39,3.09-3.09,3.09s-3.09-1.39-3.09-3.09v-16.29c0-1.7,1.39-3.09,3.09-3.09s3.09,1.39,3.09,3.09ZM325.17,355.99v3.14c0,1.7-1.39,3.09-3.09,3.09s-3.09-1.39-3.09-3.09v-3.14c0-1.7,1.39-3.09,3.09-3.09s3.09,1.39,3.09,3.09Z"/>
    </g>
  </g>
</svg>