<?xml version="1.0" encoding="UTF-8"?>
<svg id="Layer_2" data-name="Layer 2" xmlns="http://www.w3.org/2000/svg" viewBox="0 0 555.24 555.24">
  <defs>
    <style>
      .cls-1 {
        fill: #043231;
        stroke: #fbf9f3;
        stroke-miterlimit: 10;
        stroke-width: .96px;
      }

      .cls-2 {
        fill: #00af67;
      }

      .cls-3 {
        fill: #fbf9f3;
      }
    </style>
  </defs>
  <g id="DESIGNED_BY_Kim_Zamorano" data-name="DESIGNED BY Kim Zamorano">
    <g>
      <circle class="cls-3" cx="277.62" cy="277.62" r="277.62"/>
      <path class="cls-2" d="M277.19,511.93c62.59.11,121.47-24.15,165.81-68.33,44.34-44.18,68.82-102.98,68.93-165.56.11-62.59-24.15-121.47-68.33-165.81-44.18-44.34-102.98-68.82-165.56-68.93-62.59-.11-121.47,24.15-165.81,68.33-44.34,44.18-68.82,102.98-68.93,165.56-.11,62.59,24.15,121.47,68.33,165.81s102.98,68.82,165.56,68.93ZM278.03,51.3c60.45.11,117.24,23.75,159.91,66.58,42.67,42.82,66.11,99.7,66,160.15-.11,60.45-23.75,117.24-66.58,159.91-42.82,42.67-99.7,66.11-160.15,66-60.45-.11-117.24-23.75-159.91-66.58-42.67-42.82-66.11-99.7-66-160.15.11-60.45,23.75-117.24,66.58-159.91,42.82-42.67,99.7-66.11,160.15-66Z"/>
      <g>
        <path class="cls-1" d="M347.54,223.85c0,2.47,2.02,4.48,4.48,4.48s4.48-2.02,4.48-4.48-2.02-4.48-4.48-4.48-4.48,2.02-4.48,4.48Z"/>
        <path class="cls-1" d="M365.47,277.64c0,5.74-.58,11.47-1.7,17.03-.49,2.42,1.08,4.8,3.5,5.29.31.04.58.09.9.09,2.11,0,3.94-1.48,4.39-3.59,1.26-6.14,1.88-12.51,1.88-18.83,0-14.12-3.05-27.7-9.1-40.38-1.08-2.24-3.72-3.18-5.96-2.11s-3.18,3.72-2.11,5.96c5.42,11.47,8.2,23.76,8.2,36.53Z"/>
        <path class="cls-1" d="M300.03,317.97h-4.48v-58.27c0-2.47-2.02-4.48-4.48-4.48h-35.86c-2.47,0-4.48,2.02-4.48,4.48v17.93c0,2.47,2.02,4.48,4.48,4.48h4.48v35.86h-4.48c-2.47,0-4.48,2.02-4.48,4.48v17.93c0,2.47,2.02,4.48,4.48,4.48h44.82c2.47,0,4.48-2.02,4.48-4.48v-17.93c0-2.47-2.02-4.48-4.48-4.48ZM295.55,335.9h-35.86v-8.96h4.48c2.47,0,4.48-2.02,4.48-4.48v-44.82c0-2.47-2.02-4.48-4.48-4.48h-4.48v-8.96h26.89v58.27c0,2.47,2.02,4.48,4.48,4.48h4.48v8.96Z"/>
        <path class="cls-1" d="M277.62,246.26c9.91,0,17.93-8.02,17.93-17.93s-8.02-17.93-17.93-17.93-17.93,8.02-17.93,17.93,8.02,17.93,17.93,17.93ZM277.62,219.37c4.93,0,8.96,4.03,8.96,8.96s-4.03,8.96-8.96,8.96-8.96-4.03-8.96-8.96,4.03-8.96,8.96-8.96Z"/>
        <path class="cls-1" d="M277.62,162.89c-61.85,0-114.74,52.8-114.74,114.74,0,21.16,6.05,43.66,16.27,60.69l-16.05,48.14c-.54,1.61-.13,3.41,1.08,4.57,1.21,1.21,3,1.61,4.57,1.08l48.18-16.05c17.03,10.22,39.53,16.27,60.69,16.27,61.85,0,114.74-52.8,114.74-114.74s-52.8-114.7-114.74-114.7ZM277.62,383.41c-20.3,0-41.86-6.01-57.73-16-1.12-.72-2.51-.9-3.81-.45l-41.64,13.89,13.89-41.64c.45-1.3.27-2.69-.45-3.81-10.04-15.91-16.05-37.47-16.05-57.78,0-57.33,48.45-105.78,105.78-105.78s105.78,48.45,105.78,105.78-48.45,105.78-105.78,105.78Z"/>
      </g>
    </g>
  </g>
</svg>