<?xml version="1.0" encoding="UTF-8"?>
<svg id="Layer_2" data-name="Layer 2" xmlns="http://www.w3.org/2000/svg" viewBox="0 0 729.79 668.03">
  <defs>
    <style>
      .cls-1 {
        fill: #043231;
      }
    </style>
  </defs>
  <g id="DESIGNED_BY_Kim_Zamorano" data-name="DESIGNED BY Kim Zamorano">
    <path class="cls-1" d="M143.6,283.26c0-7.38-2.87-14.31-8.09-19.54-5.4-5.38-12.46-8.07-19.54-8.07s-14.14,2.69-19.54,8.07c-10.75,10.77-10.75,28.3,0,39.07,10.79,10.77,28.28,10.77,39.08,0,5.23-5.22,8.09-12.15,8.09-19.53ZM374.67,144.2c10.77-10.77,10.77-28.31,0-39.08-10.79-10.77-28.28-10.77-39.08,0-10.75,10.78-10.75,28.31,0,39.09,10.79,10.75,28.28,10.76,39.08-.01ZM310.02,0C138.81,0,0,138.8,0,310.02v297.85l88.29-74.52,7.91-188.87c-9.47-3.04-18.43-8.02-25.94-15.53-25.18-25.19-25.18-66.18,0-91.38,25.2-25.2,66.21-25.21,91.41-.01,12.21,12.21,18.94,28.44,18.94,45.7s-6.72,33.49-18.94,45.69c-7.49,7.5-16.45,12.49-25.92,15.52l6.02,143.73,96.8-81.71,11.59-195.6.47-7.88,4.95-4.95,42.91-42.91c-13.12-24.47-9.66-55.56,10.94-76.17h0c25.2-25.21,66.21-25.21,91.41-.01,25.2,25.2,25.2,66.21,0,91.41-12.6,12.6-29.15,18.89-45.7,18.89-10.54,0-20.96-2.84-30.48-7.94l-37.26,37.25,4.71,142.73,235.06-198.42c-12.35-24.28-8.67-54.67,11.6-74.94,25.2-25.2,66.21-25.2,91.41,0,25.18,25.2,25.18,66.21,0,91.39h0c-12.6,12.61-29.15,18.9-45.7,18.9-10.66,0-21.2-2.9-30.8-8.12L227.27,502.39l192.52,6.6,37.22-37.22c-5.04-9.31-7.97-19.63-7.97-30.5,0-17.27,6.72-33.5,18.94-45.7,25.2-25.2,66.21-25.2,91.41,0,25.18,25.2,25.18,66.19,0,91.39-12.6,12.6-29.15,18.9-45.7,18.9-10.54,0-20.96-2.85-30.48-7.95l-42.91,42.91-5,5.01-7.83.41-260.44,13.79-112.87,108h365.61c171.22,0,310.02-138.8,310.02-310.02V0h-419.77ZM533.22,460.81c10.77-10.77,10.77-28.3,0-39.07-5.4-5.38-12.46-8.07-19.54-8.07s-14.14,2.69-19.54,8.07c-5.23,5.22-8.09,12.15-8.09,19.54s2.87,14.31,8.09,19.53c10.79,10.77,28.28,10.77,39.08,0ZM604,153.17c10.75-10.78,10.75-28.31,0-39.09-5.4-5.37-12.46-8.06-19.54-8.06s-14.14,2.69-19.54,8.07c-10.77,10.77-10.77,28.31,0,39.08,10.79,10.77,28.28,10.77,39.08,0Z"/>
  </g>
</svg>