<?xml version="1.0" encoding="UTF-8"?>
<svg id="Layer_2" data-name="Layer 2" xmlns="http://www.w3.org/2000/svg" viewBox="0 0 985.42 985.42">
  <defs>
    <style>
      .cls-1 {
        fill: #00af67;
      }

      .cls-2 {
        fill: #fbf9f3;
      }
    </style>
  </defs>
  <g id="DESIGNED_BY_Kim_Zamorano" data-name="DESIGNED BY Kim Zamorano">
    <g>
      <circle class="cls-1" cx="492.71" cy="492.71" r="492.71"/>
      <path class="cls-2" d="M331,455.62c0-5.4-2.1-10.46-5.92-14.28-3.94-3.93-9.1-5.9-14.28-5.9s-10.33,1.96-14.28,5.9c-7.85,7.87-7.85,20.68,0,28.55,7.89,7.87,20.67,7.87,28.56,0,3.82-3.81,5.92-8.88,5.92-14.27ZM499.85,354c7.87-7.87,7.87-20.69,0-28.56-7.89-7.87-20.67-7.87-28.56,0-7.85,7.88-7.85,20.69,0,28.56,7.89,7.85,20.67,7.86,28.56,0ZM452.61,248.63c-125.11,0-226.55,101.43-226.55,226.55v217.66l64.52-54.46,5.78-138.02c-6.92-2.22-13.47-5.86-18.95-11.35-18.4-18.41-18.4-48.36,0-66.78,18.42-18.42,48.38-18.42,66.8,0,8.93,8.93,13.84,20.78,13.84,33.4s-4.91,24.47-13.84,33.39c-5.48,5.48-12.02,9.12-18.94,11.34l4.4,105.03,70.74-59.71,8.47-142.94.34-5.76,3.62-3.62,31.36-31.36c-9.59-17.88-7.06-40.6,7.99-55.66h0c18.42-18.42,48.38-18.42,66.8,0,18.42,18.42,18.42,48.38,0,66.8-9.21,9.21-21.3,13.8-33.4,13.8-7.7,0-15.32-2.08-22.27-5.81l-27.23,27.22,3.44,104.3,171.77-144.99c-9.02-17.74-6.34-39.95,8.48-54.77,18.42-18.42,48.38-18.42,66.8,0,18.4,18.42,18.4,48.38,0,66.79h0c-9.21,9.22-21.3,13.81-33.4,13.81-7.79,0-15.49-2.12-22.51-5.93l-238.51,228.21,140.69,4.82,27.2-27.2c-3.68-6.8-5.83-14.34-5.83-22.29,0-12.62,4.91-24.48,13.84-33.4,18.42-18.42,48.38-18.42,66.8,0,18.4,18.42,18.4,48.37,0,66.79-9.21,9.21-21.3,13.81-33.4,13.81-7.7,0-15.32-2.08-22.27-5.81l-31.36,31.36-3.65,3.66-5.72.3-190.32,10.08-82.48,78.92h267.17c125.12,0,226.55-101.43,226.55-226.55V248.63h-306.75ZM615.72,585.36c7.87-7.87,7.87-20.68,0-28.55-3.94-3.93-9.1-5.9-14.28-5.9s-10.33,1.96-14.28,5.9c-3.82,3.81-5.92,8.88-5.92,14.28s2.1,10.46,5.92,14.27c7.89,7.87,20.67,7.87,28.56,0ZM667.44,360.56c7.85-7.88,7.85-20.69,0-28.56-3.94-3.93-9.1-5.89-14.28-5.89s-10.33,1.96-14.28,5.9c-7.87,7.87-7.87,20.69,0,28.56,7.89,7.87,20.67,7.87,28.56,0Z"/>
    </g>
  </g>
</svg>