<?xml version="1.0" encoding="UTF-8"?>
<svg id="Layer_2" data-name="Layer 2" xmlns="http://www.w3.org/2000/svg" viewBox="0 0 555.24 555.24">
  <defs>
    <style>
      .cls-1 {
        fill: #043231;
        stroke: #fbf9f3;
        stroke-miterlimit: 10;
        stroke-width: 1.2px;
      }

      .cls-2 {
        fill: #00af67;
      }

      .cls-3 {
        fill: #fbf9f3;
      }
    </style>
  </defs>
  <g id="DESIGNED_BY_Kim_Zamorano" data-name="DESIGNED BY Kim Zamorano">
    <g>
      <circle class="cls-3" cx="277.62" cy="277.62" r="277.62"/>
      <path class="cls-2" d="M278.04,511.93c-62.59.11-121.47-24.15-165.81-68.33-44.34-44.18-68.82-102.98-68.93-165.56-.11-62.59,24.15-121.47,68.33-165.81,44.18-44.34,102.97-68.82,165.56-68.93,62.59-.11,121.47,24.15,165.81,68.33,44.34,44.18,68.82,102.98,68.93,165.56.11,62.59-24.15,121.47-68.33,165.81-44.18,44.34-102.98,68.82-165.56,68.93ZM277.21,51.3c-60.45.11-117.24,23.75-159.91,66.58-42.67,42.82-66.11,99.7-66,160.15s23.75,117.24,66.58,159.91c42.82,42.67,99.7,66.11,160.15,66,60.45-.11,117.24-23.75,159.91-66.58,42.67-42.82,66.11-99.7,66-160.15-.11-60.45-23.75-117.24-66.58-159.91-42.82-42.67-99.7-66.11-160.15-66Z"/>
      <g>
        <path class="cls-1" d="M362.42,197.17c1.11,0,2.22-.42,3.07-1.27l7.61-7.61c1.7-1.7,1.7-4.45,0-6.15-1.7-1.7-4.45-1.7-6.15,0l-7.61,7.61c-1.7,1.7-1.7,4.45,0,6.15.85.85,1.96,1.27,3.07,1.27Z"/>
        <path class="cls-1" d="M304.5,195.89c.85.85,1.96,1.27,3.07,1.27s2.22-.42,3.07-1.27c1.7-1.7,1.7-4.45,0-6.15l-7.61-7.61c-1.7-1.7-4.45-1.7-6.15,0-1.7,1.7-1.7,4.45,0,6.15l7.61,7.61Z"/>
        <path class="cls-1" d="M334.99,245.99c14.19,0,25.74-11.55,25.74-25.74s-11.55-25.74-25.74-25.74-25.74,11.55-25.74,25.74c0,14.19,11.55,25.74,25.74,25.74h0ZM334.99,203.19c9.4,0,17.05,7.65,17.05,17.05s-7.65,17.05-17.05,17.05-17.05-7.65-17.05-17.05,7.65-17.05,17.05-17.05h0Z"/>
        <path class="cls-1" d="M365.49,244.59c-1.7-1.7-4.45-1.7-6.15,0-1.7,1.7-1.7,4.45,0,6.15l7.61,7.61c.85.85,1.96,1.27,3.07,1.27s2.22-.42,3.07-1.27c1.7-1.7,1.7-4.45,0-6.15l-7.61-7.61Z"/>
        <path class="cls-1" d="M304.5,244.59l-7.61,7.61c-1.7,1.7-1.7,4.45,0,6.15.85.85,1.96,1.27,3.07,1.27s2.22-.42,3.07-1.27l7.61-7.61c1.7-1.7,1.7-4.45,0-6.15-1.7-1.7-4.45-1.7-6.15,0h0Z"/>
        <path class="cls-1" d="M369.43,220.24c0,2.4,1.95,4.35,4.35,4.35h10.77c2.4,0,4.35-1.95,4.35-4.35s-1.95-4.35-4.35-4.35h-10.77c-2.4,0-4.35,1.95-4.35,4.35Z"/>
        <path class="cls-1" d="M334.99,185.81c2.4,0,4.35-1.95,4.35-4.35v-10.77c0-2.4-1.95-4.35-4.35-4.35s-4.35,1.95-4.35,4.35v10.77c0,2.4,1.95,4.35,4.35,4.35Z"/>
        <path class="cls-1" d="M330.65,259.03v10.77c0,2.4,1.95,4.35,4.35,4.35s4.35-1.95,4.35-4.35v-10.77c0-2.4-1.95-4.35-4.35-4.35s-4.35,1.95-4.35,4.35Z"/>
        <path class="cls-1" d="M285.44,224.59h10.77c2.4,0,4.35-1.95,4.35-4.35s-1.95-4.35-4.35-4.35h-10.77c-2.4,0-4.35,1.95-4.35,4.35s1.95,4.35,4.35,4.35Z"/>
        <path class="cls-1" d="M384.54,380.2h-59.87v-12.17h50.43c3.28,0,6.3-1.49,8.29-4.09,1.99-2.6,2.64-5.91,1.78-9.07l-16.51-60.85c-1.23-4.53-5.37-7.7-10.07-7.7h-100.75c-4.7,0-8.84,3.17-10.07,7.7l-8.19,30.17v-66.01l17.15,9.9c5.38,3.11,11.52,4.71,17.68,4.71,3.11,0,6.23-.41,9.25-1.24,2.3-.63,3.66-3.03,3.04-5.34-2.43-9.1-8.27-16.71-16.43-21.43l-30.26-17.47v-34.73c0-9.42-3.67-18.28-10.36-24.96-1.69-1.69-4.43-1.7-6.13-.02-6.65,6.58-10.46,15.71-10.46,25.06v34.71l-30.14,17.4c-8.16,4.71-14,12.32-16.43,21.45-.62,2.31.74,4.69,3.05,5.32,3.03.83,6.14,1.24,9.25,1.24,6.16,0,12.3-1.6,17.68-4.71l17.02-9.83v40.02c0,2.4,1.95,4.35,4.35,4.35s4.35-1.95,4.35-4.35v-45.04l4.41-2.54,4.29,2.47v127.04h-8.69v-42.81c0-2.4-1.95-4.35-4.35-4.35s-4.35,1.95-4.35,4.35v42.81h-42.81c-2.4,0-4.35,1.95-4.35,4.35s1.95,4.35,4.35,4.35h213.85c2.4,0,4.35-1.95,4.35-4.35s-1.95-4.35-4.35-4.35h0ZM232.81,235.16c0,3.45-2.81,6.26-6.26,6.26s-6.26-2.81-6.26-6.26,2.81-6.26,6.26-6.26,6.26,2.81,6.26,6.26ZM276.68,263.99c-5.39.46-10.89-.72-15.61-3.45l-24.61-14.21c2.4-2.13,4.11-5.03,4.75-8.3l24.71,14.27c4.76,2.75,8.47,6.8,10.75,11.69ZM226.58,177.42c3.08,4.42,4.74,9.66,4.74,15.16v28.41c-1.5-.51-3.11-.79-4.78-.79s-3.28.28-4.78.79v-28.32c0-5.45,1.72-10.81,4.82-15.24ZM192.13,260.54c-4.72,2.73-10.22,3.91-15.61,3.45,2.28-4.88,5.99-8.94,10.76-11.69l24.6-14.2c.66,3.27,2.38,6.15,4.79,8.28l-24.54,14.17ZM275.7,359.33l2.12-15.65h26.01v15.65h-28.13ZM241.32,359.33c-.75,0-1.19-.43-1.38-.68-.2-.25-.49-.79-.3-1.51l3.65-13.45h25.75l-2.12,15.65h-25.6ZM249.9,319.34h22.45l-2.12,15.65h-24.57l4.25-15.65ZM303.83,295v15.65h-21.53l2.12-15.65h19.4ZM331.92,295l2.12,15.65h-21.53v-15.65h19.4ZM370.77,334.99h-24.65l-2.12-15.65h22.52l4.25,15.65ZM337.35,334.99h-24.83v-15.65h22.71l2.12,15.65ZM303.83,319.34v15.65h-24.83l2.12-15.65h22.71ZM312.52,343.68h26.01l2.12,15.65h-28.13v-15.65ZM376.49,358.65c-.19.26-.63.68-1.38.68h-25.68l-2.12-15.65h25.83l3.65,13.45c.2.72-.1,1.26-.3,1.51h0ZM360.27,296.29l3.9,14.36h-21.35l-2.12-15.65h17.89c.78,0,1.47.53,1.68,1.28h0ZM257.84,295h17.81l-2.12,15.65h-21.27l3.9-14.36c.21-.76.89-1.28,1.68-1.28ZM239.58,367.88c.57.09,1.15.14,1.74.14h50.32v12.17h-52.06v-12.32ZM300.33,380.2v-12.17h15.65v12.17h-15.65Z"/>
        <path class="cls-1" d="M217.85,322.17c1.14,0,2.26-.46,3.07-1.27.81-.81,1.27-1.93,1.27-3.07s-.47-2.26-1.27-3.07-1.93-1.27-3.07-1.27-2.26.46-3.07,1.27-1.27,1.93-1.27,3.07.47,2.26,1.27,3.07c.81.81,1.93,1.27,3.07,1.27Z"/>
      </g>
    </g>
  </g>
</svg>