<?xml version="1.0" encoding="UTF-8"?>
<svg id="Layer_2" data-name="Layer 2" xmlns="http://www.w3.org/2000/svg" xmlns:xlink="http://www.w3.org/1999/xlink" viewBox="0 0 212.04 212.04">
  <defs>
    <style>
      .cls-1 {
        fill: none;
      }

      .cls-2 {
        fill: #00af67;
      }

      .cls-3 {
        clip-path: url(#clippath);
      }
    </style>
    <clipPath id="clippath">
      <rect class="cls-1" width="212.04" height="212.04"/>
    </clipPath>
  </defs>
  <g id="DESIGNED_BY_Kim_Zamorano" data-name="DESIGNED BY Kim Zamorano">
    <g class="cls-3">
      <g id="_9onyxM.tif" data-name="9onyxM.tif">
        <path class="cls-2" d="M107.91,18.66c.97.06,1.94.14,2.91.17,3.88.14,7.75.49,11.59,1.09,3.37.52,6.69,1.23,9.97,2.15,6.83,1.92,13.25,4.74,19.19,8.64,4.91,3.23,9.3,7.07,13.18,11.49,5.42,6.18,9.55,13.14,12.7,20.7,1.4,3.37,2.56,6.82,3.53,10.33.17.61.17.6-.45.77-4.38,1.17-8.76,2.34-13.14,3.51-.83.22-.83.23-1.06-.58-1.64-5.63-3.79-11.05-6.75-16.13-2.12-3.64-4.62-6.99-7.54-10.03-4.63-4.82-10.04-8.51-16.15-11.2-5.32-2.35-10.89-3.82-16.63-4.65-4.9-.71-9.83-.99-14.78-.81-4.48.16-8.93.65-13.32,1.58-6.85,1.45-13.29,3.9-19.17,7.75-5.05,3.3-9.27,7.46-12.78,12.35-4.02,5.61-6.83,11.81-8.86,18.38-1.35,4.39-2.37,8.86-2.98,13.41-.41,3.07-.79,6.16-1.01,9.25-.24,3.31-.37,6.62-.37,9.94,0,3.05.17,6.1.38,9.13.31,4.35.88,8.67,1.72,12.95,1.21,6.22,2.99,12.25,5.65,18.01,2.72,5.91,6.28,11.26,10.91,15.87,4.04,4.02,8.69,7.15,13.85,9.54,4.94,2.29,10.12,3.77,15.48,4.67,4.42.74,8.88,1.1,13.36,1.1,5.66,0,11.28-.46,16.83-1.63,6.99-1.48,13.43-4.21,19.15-8.53,3.46-2.61,6.58-5.56,9.16-9.05,3.34-4.52,5.42-9.56,6.13-15.14.62-4.88.13-9.64-1.55-14.26-1.53-4.2-4.07-7.7-7.47-10.57-1.36-1.15-2.87-2.14-4.32-3.19-.1-.07-.21-.12-.42-.23-.07.43-.13.8-.19,1.17-.84,5.62-2.29,11.05-4.84,16.15-1.73,3.46-3.94,6.59-6.68,9.33-4.45,4.46-9.82,7.25-15.92,8.69-4.33,1.02-8.73,1.34-13.16,1.04-5.34-.36-10.41-1.68-15.15-4.18-5.55-2.93-9.84-7.11-12.58-12.79-1.28-2.65-2.06-5.46-2.41-8.38-.5-4.25-.18-8.43,1.21-12.49,1.9-5.57,5.36-9.98,10.11-13.41,4.1-2.96,8.68-4.86,13.57-6.06,3.28-.81,6.62-1.3,10-1.4,2.86-.09,5.73-.21,8.6-.13,2.89.08,5.77.38,8.65.63,1.18.1,2.35.32,3.52.48.09.01.19,0,.34,0,0-.14.02-.26,0-.38-.64-3.72-1.76-7.27-3.83-10.47-2.46-3.79-5.93-6.2-10.24-7.39-5.18-1.43-10.41-1.52-15.62-.15-4.95,1.3-8.94,4.04-11.85,8.28-.23.33-.4.29-.67.1-3.67-2.53-7.35-5.05-11.03-7.58-.08-.06-.16-.11-.24-.17-.8-.56-.9-.36-.23-1.32,3.73-5.3,8.49-9.37,14.41-12.05,4-1.81,8.19-2.88,12.56-3.27,5.42-.48,10.77-.17,16.05,1.2,4.98,1.29,9.5,3.51,13.4,6.9,3.13,2.72,5.63,5.94,7.55,9.6,2.54,4.83,4,10,4.75,15.38.24,1.75.38,3.51.53,5.26.04.47.21.72.65.91,5.17,2.25,9.9,5.18,14.07,8.99,4.34,3.97,7.78,8.59,10.09,14.02,2.65,6.22,3.78,12.73,3.56,19.47-.31,9.23-3.13,17.65-8.35,25.27-3.02,4.4-6.71,8.18-10.79,11.59-6.45,5.39-13.71,9.26-21.76,11.65-5.73,1.7-11.58,2.67-17.52,3.09-2.56.18-5.13.36-7.7.36-2.72,0-5.45-.17-8.16-.37-5.95-.43-11.8-1.44-17.52-3.11-7.63-2.23-14.71-5.6-21.1-10.36-4.11-3.06-7.77-6.58-11.03-10.54-3.49-4.24-6.41-8.85-8.83-13.77-2.64-5.37-4.65-10.96-6.17-16.74-1-3.81-1.79-7.67-2.36-11.56-.39-2.72-.69-5.46-.96-8.19-.49-4.96-.68-9.94-.58-14.93.06-2.74.22-5.47.4-8.2.15-2.22.32-4.45.63-6.66.44-3.16.93-6.31,1.52-9.44,1.11-5.84,2.8-11.52,5.02-17.03,2.74-6.81,6.3-13.16,10.93-18.88,4.37-5.41,9.47-9.99,15.34-13.72,5.09-3.23,10.54-5.65,16.3-7.4,5.42-1.65,10.96-2.72,16.6-3.21,2.8-.24,5.61-.34,8.41-.51.25-.02.5-.06.75-.09.34,0,.68,0,1.02,0ZM113.75,108.22c-.89.04-2.53.11-4.16.17-2.16.08-4.3.34-6.42.78-3.15.65-6.16,1.68-8.8,3.57-3.13,2.22-5.16,5.14-5.56,9.04-.36,3.47.6,6.54,2.94,9.14,1.9,2.11,4.28,3.48,6.95,4.37,5.53,1.84,11.11,1.78,16.68.18,3.36-.97,6.18-2.85,8.43-5.55,2.01-2.41,3.36-5.18,4.35-8.13,1.25-3.73,1.84-7.59,2.2-11.5.03-.38-.15-.48-.47-.55-5.07-1.07-10.21-1.49-16.13-1.53Z"/>
      </g>
    </g>
  </g>
</svg>