<?xml version="1.0" encoding="UTF-8"?>
<svg id="Layer_2" data-name="Layer 2" xmlns="http://www.w3.org/2000/svg" viewBox="0 0 555.24 555.24">
  <defs>
    <style>
      .cls-1 {
        fill: #043231;
      }

      .cls-2 {
        fill: #00af67;
      }

      .cls-3 {
        fill: #fbf9f3;
      }
    </style>
  </defs>
  <g id="DESIGNED_BY_Kim_Zamorano" data-name="DESIGNED BY Kim Zamorano">
    <g>
      <circle class="cls-3" cx="277.62" cy="277.62" r="277.62"/>
      <path class="cls-2" d="M278.04,511.93c-62.59.11-121.47-24.15-165.81-68.33-44.34-44.18-68.82-102.98-68.93-165.56-.11-62.59,24.15-121.47,68.33-165.81,44.18-44.34,102.98-68.82,165.56-68.93,62.59-.11,121.47,24.15,165.81,68.33,44.34,44.18,68.82,102.98,68.93,165.56.11,62.59-24.15,121.47-68.33,165.81-44.18,44.34-102.98,68.82-165.56,68.93ZM277.21,51.3c-60.45.11-117.24,23.75-159.91,66.58-42.67,42.82-66.11,99.7-66,160.15.11,60.45,23.75,117.24,66.58,159.91,42.82,42.67,99.7,66.11,160.15,66,60.45-.11,117.24-23.75,159.91-66.58,42.67-42.82,66.11-99.7,66-160.15-.11-60.45-23.75-117.24-66.58-159.91-42.82-42.67-99.7-66.11-160.15-66Z"/>
      <g>
        <path class="cls-1" d="M270.16,308.21h-46.1l11.6-22.1,16.66,9.19c.5.28,1.05.41,1.59.41.91,0,1.8-.37,2.44-1.08,1.03-1.13,1.14-2.82.29-4.08l-31.23-45.84c-.05-.07-.12-.11-.18-.17-.14-.18-.3-.32-.48-.47-.16-.13-.32-.26-.5-.36-.18-.1-.36-.16-.56-.22-.22-.07-.43-.13-.66-.16-.08,0-.15-.05-.23-.06l-55.62-2.05c-1.65-.08-2.89.94-3.3,2.42-.41,1.47.25,3.03,1.59,3.77l17.88,9.86-12.15,23.17c-2.28,4.34-2.57,9.39-.82,13.85,7.93,20.13,19.46,42.12,32.45,61.94.1.22.18.44.29.65,3.37,6.57,9.31,10.89,16.29,11.87,1.09.15,2.2.23,3.33.23h47.41c1.82,0,3.3-1.48,3.3-3.3v-54.17c0-1.82-1.48-3.3-3.3-3.3h0ZM200.84,340.59c-9.64-16.08-18.11-32.98-24.32-48.71-1.05-2.68-.86-5.72.52-8.37l13.65-26.04c.1-.19.12-.4.18-.6.06-.21.16-.41.18-.62.02-.22-.03-.43-.06-.64-.02-.21,0-.42-.07-.61-.06-.2-.19-.37-.29-.56-.1-.19-.17-.39-.3-.56-.14-.17-.33-.28-.5-.43-.16-.13-.28-.3-.47-.4l-8.57-4.73,40.1,1.48,22.51,33.04-7.51-4.14s-.02,0-.03-.01c0,0-.01-.01-.02-.02-.18-.09-.37-.1-.55-.16-.23-.07-.45-.18-.68-.2-.22-.02-.44.04-.65.06-.2.02-.4,0-.59.07-.23.07-.43.21-.64.33-.16.09-.33.14-.48.26-.17.14-.29.34-.44.51-.13.16-.29.28-.39.46,0,.01,0,.02-.01.03,0,0-.01.01-.02.02l-28.2,53.72c-1.13,2.16-1.89,4.46-2.35,6.81h0ZM266.86,362.38h-44.11c-.82,0-1.63-.06-2.42-.17-4.82-.67-8.95-3.71-11.33-8.34-2.72-5.29-2.7-11.81.03-17.02l11.57-22.04h46.26v47.58h0Z"/>
        <path class="cls-1" d="M390.2,283.12c-.37-1.05-.81-2.1-1.33-3.11l-21.92-43.11c-.4-.79-1.11-1.39-1.95-1.65-.85-.27-1.76-.18-2.55.24l-46.84,25.05c-1.58.85-2.2,2.8-1.38,4.41l21.37,42.02-24.37-.33.24-19.54c.02-1.53-1.02-2.88-2.51-3.25-1.49-.36-3.04.34-3.73,1.71l-25.19,49.6c-.03.06-.02.12-.05.18-.1.22-.14.44-.19.67-.04.19-.09.38-.09.57,0,.21.04.41.08.61.04.22.07.44.16.65.02.06.02.13.05.19l23.95,51.52c.55,1.18,1.73,1.91,2.99,1.91.23,0,.46-.02.69-.07,1.51-.33,2.59-1.65,2.61-3.19l.26-20.81,25.52.33h.21c4.78,0,9.25-2.07,12.28-5.72,13.7-16.47,27.34-37.06,38.46-58,.03-.05.07-.08.11-.13,4.45-6.2,5.6-13.77,3.14-20.76h0ZM343.42,357.79c-1.77,2.13-4.39,3.34-7.21,3.34h-.13l-28.82-.37h-.04c-.45,0-.88.09-1.27.26-.13.05-.23.16-.35.23-.24.14-.5.27-.7.46-.02.02-.03.05-.04.06-.56.58-.93,1.36-.94,2.24h0s-.12,9.62-.12,9.62l-17.16-36.92,18.05-35.53-.11,8.67h0c-.02,1.67,1.22,3.01,2.83,3.25.14.02.27.09.42.09l33.07.44s.09,0,.11,0l26.3.35c.1,0,.21,0,.31,0,2.32,0,4.6-.39,6.78-1.05-9.48,16.29-20.22,31.89-31,44.86h0ZM381.7,300.03c-3.36,4.68-8.66,7.34-14.29,7.35l-24.37-.32-21.47-42.23,41.02-21.94,20.4,40.12c.38.75.71,1.52.98,2.3,1.74,4.94.91,10.3-2.27,14.73h0Z"/>
        <path class="cls-1" d="M332.44,239.02s.03-.03.04-.04c.44-.25.78-.62,1.06-1.04.04-.05.1-.07.13-.13l28.84-48.82c.78-1.32.55-3.01-.56-4.07s-2.8-1.21-4.09-.37l-16.99,11.14-13.74-22.04c-2.61-4.19-6.8-6.93-11.51-7.54-20.97-2.69-45.3-3.09-68.51-1.11-.16,0-.31-.04-.46-.05-7.43-.23-14.09,2.93-18.37,8.79-.65.89-1.26,1.85-1.81,2.86l-23.09,42.47c-.86,1.57-.3,3.55,1.26,4.44l46.14,26.39c.5.29,1.07.44,1.64.44.3,0,.61-.04.9-.13.85-.24,1.57-.82,2-1.6l22.4-41.2,13.13,21.09-16.07,10.53c-1.27.83-1.81,2.43-1.3,3.86.47,1.33,1.72,2.19,3.11,2.19.11,0,.23,0,.34-.02l54.25-5.65c.46-.05.88-.19,1.26-.4h0ZM251.12,242.5l-40.41-23.11,21.55-39.63c.41-.74.85-1.45,1.34-2.11,2.97-4.07,7.58-6.26,12.81-6.1,5.76.22,11.05,3.3,14.13,8.25l13.17,21.15-22.58,41.53ZM289.75,237.1l7.33-4.81s0,0,0,0c0,0,0,0,0,0l.06-.04c.16-.1.25-.26.39-.38.18-.17.38-.32.52-.51.11-.17.16-.36.24-.54.09-.2.21-.4.26-.62.04-.2.01-.4.02-.6,0-.22.05-.44,0-.66-.03-.19-.14-.37-.21-.56-.08-.21-.11-.43-.23-.63l-17.82-28.61s-.02-.03-.03-.04l-14.17-22.76c-1.34-2.15-3-4-4.87-5.6,18.46-.82,37.05-.19,53.51,1.94,2.74.35,5.2,1.98,6.76,4.48l15.52,24.91s.02.01.02.02c0,.01,0,.03.02.04.29.44.67.75,1.09,1,.12.07.25.1.38.16.33.14.67.23,1.03.26.09,0,.17.07.26.07.07,0,.14-.06.21-.06.48-.03.95-.15,1.39-.4.04-.02.1-.01.14-.04.01,0,.02-.02.03-.03s.02,0,.04-.01l7.95-5.21-20.77,35.17-39.09,4.07h0Z"/>
      </g>
    </g>
  </g>
</svg>