<?xml version="1.0" encoding="UTF-8"?>
<svg id="Layer_2" data-name="Layer 2" xmlns="http://www.w3.org/2000/svg" viewBox="0 0 1924.81 295.43">
  <defs>
    <style>
      .cls-1 {
        fill: #00af67;
      }

      .cls-2 {
        fill: #fbf9f3;
      }
    </style>
  </defs>
  <g id="DESIGNED_BY_Kim_Zamorano" data-name="DESIGNED BY Kim Zamorano">
    <g>
      <g>
        <g>
          <path class="cls-2" d="M521.77,49.42l-52.71,130.54-52.72-130.54h-47.55l81.35,196.59h37.73l81.45-196.59h-47.55Z"/>
          <path class="cls-2" d="M582.24,98.51v147.5h40.93V98.51h-40.93Z"/>
          <path class="cls-2" d="M710.51,94.17c-45.27,0-76.38,34.94-76.38,78.14v73.7h40.93v-73.7c0-20.98,15.71-38.24,36.07-40.62v-37.52h-.62Z"/>
          <path class="cls-2" d="M803.95,133.55v-35.04h-40.93v-49.1h-40.93v122.9c0,43.1,31.11,78.14,76.49,78.14h5.37v-37.21c-22.64,0-40.93-18.3-40.93-40.93v-38.76h40.93Z"/>
          <path class="cls-2" d="M923.64,98.51v73.8c0,22.64-11.16,40.93-33.9,40.93s-33.8-18.3-33.8-40.93v-73.8h-41.03v73.8c0,43.1,29.56,78.14,74.83,78.14s74.94-35.04,74.94-78.14v-73.8h-41.03Z"/>
          <path class="cls-2" d="M1050.16,159.18c-15.81-1.86-33.9-8.78-33.9-17.47,0-9.82,8.48-13.13,17.47-13.13s17.57,3.31,17.57,15.81h40.93c0-31.63-26.77-50.23-58.5-50.23s-58.4,18.61-58.4,48.58c0,23.26,27.6,40.72,56.23,44.34,12.3,1.55,21.29,7.85,21.29,14.68,0,9.61-10.03,14.26-19.12,14.26s-19.12-3.31-19.12-15.92h-40.93c0,31.73,28.42,50.34,60.05,50.34s60.16-18.61,60.16-50.34c0-24.81-22.12-38.45-43.72-40.93Z"/>
          <path class="cls-2" d="M1204.79,130.76v31.73h67.5c-6.92,27.8-31.73,48.58-61.81,48.58-34.94,0-63.36-28.42-63.36-63.36s28.42-63.36,63.36-63.36c18.3,0,37.42,7.96,49.2,20.15h50.85c-17.26-35.14-56.85-59.53-100.05-59.53-59.23,0-107.08,45.89-107.08,102.74s47.86,102.74,107.08,102.74c68.01,0,107.08-51.37,107.08-109.25v-10.44h-112.77Z"/>
          <path class="cls-2" d="M1406.45,94.17c-45.37,0-76.49,34.94-76.49,78.14v73.7h40.93v-73.7c0-22.64,18.3-40.93,41.03-40.93v-37.21h-5.48Z"/>
          <path class="cls-2" d="M1586.82,172.31c0-43.2-36.59-78.14-81.96-78.14s-81.97,34.94-81.97,78.14,36.69,78.14,81.97,78.14c36.07,0,66.67-22.12,77.62-53.02h-45.38c-7.34,9.61-19.12,15.81-32.25,15.81-17.67,0-32.46-11.16-38.45-26.77h119.07c.83-4.65,1.35-9.3,1.35-14.16ZM1466.4,158.05c6-15.5,20.78-26.67,38.45-26.67s32.56,11.16,38.55,26.67h-77.01Z"/>
          <path class="cls-2" d="M1760.88,172.31c0-43.2-36.59-78.14-81.96-78.14s-81.96,34.94-81.96,78.14,36.69,78.14,81.96,78.14c36.07,0,66.67-22.12,77.62-53.02h-45.37c-7.34,9.61-19.12,15.81-32.25,15.81-17.78,0-32.46-11.16-38.45-26.77h119.07c.83-4.65,1.34-9.3,1.34-14.16ZM1640.46,158.05c5.99-15.5,20.67-26.67,38.45-26.67s32.56,11.16,38.55,26.67h-77Z"/>
          <path class="cls-2" d="M1848.32,94.17c-45.27,0-76.49,34.94-76.49,78.14v73.7h41.03v-73.7c0-22.64,12.82-40.93,35.45-40.93s35.56,18.3,35.56,40.93v73.7h40.93v-73.7c0-43.2-31.11-78.14-76.49-78.14Z"/>
        </g>
        <path class="cls-1" d="M599.69,49.42h23.48v20.15c0,9.63-7.82,17.45-17.45,17.45h-23.48v-20.15c0-9.63,7.82-17.45,17.45-17.45Z" transform="translate(1205.41 136.43) rotate(180)"/>
      </g>
      <path class="cls-1" d="M63.51,125.27c0-3.27-1.27-6.33-3.58-8.64-2.39-2.38-5.51-3.57-8.64-3.57s-6.25,1.19-8.64,3.57c-4.75,4.76-4.75,12.51,0,17.28,4.77,4.76,12.51,4.76,17.28,0,2.31-2.31,3.58-5.38,3.58-8.64ZM165.69,63.77c4.76-4.76,4.76-12.52,0-17.28-4.77-4.76-12.51-4.76-17.28,0-4.75,4.77-4.75,12.52,0,17.29,4.77,4.75,12.51,4.76,17.28,0ZM137.1,0C61.39,0,0,61.38,0,137.1v131.72l39.04-32.96,3.5-83.52c-4.19-1.34-8.15-3.55-11.47-6.87-11.13-11.14-11.13-29.27,0-40.41,11.14-11.14,29.28-11.15,40.42,0,5.4,5.4,8.37,12.58,8.37,20.21s-2.97,14.81-8.37,20.21c-3.31,3.32-7.28,5.52-11.46,6.86l2.66,63.56,42.81-36.14,5.12-86.5.21-3.49,2.19-2.19,18.98-18.98c-5.8-10.82-4.27-24.57,4.84-33.68h0c11.14-11.15,29.28-11.15,40.42,0,11.14,11.14,11.14,29.28,0,40.42-5.57,5.57-12.89,8.35-20.21,8.35-4.66,0-9.27-1.26-13.48-3.51l-16.48,16.47,2.08,63.12,103.95-87.75c-5.46-10.74-3.84-24.18,5.13-33.14,11.14-11.14,29.28-11.14,40.42,0,11.13,11.14,11.13,29.28,0,40.42h0c-5.57,5.58-12.89,8.36-20.21,8.36-4.71,0-9.38-1.28-13.62-3.59L100.51,222.18l85.14,2.92,16.46-16.46c-2.23-4.12-3.53-8.68-3.53-13.49,0-7.64,2.97-14.81,8.37-20.21,11.14-11.14,29.28-11.14,40.42,0,11.13,11.14,11.13,29.27,0,40.42-5.57,5.57-12.89,8.36-20.21,8.36-4.66,0-9.27-1.26-13.48-3.52l-18.98,18.98-2.21,2.21-3.46.18-115.17,6.1-49.92,47.76h161.69c75.72,0,137.1-61.38,137.1-137.1V0h-185.64ZM235.81,203.78c4.76-4.76,4.76-12.51,0-17.28-2.39-2.38-5.51-3.57-8.64-3.57s-6.25,1.19-8.64,3.57c-2.31,2.31-3.58,5.38-3.58,8.64s1.27,6.33,3.58,8.64c4.77,4.76,12.51,4.76,17.28,0ZM267.11,67.74c4.75-4.77,4.75-12.52,0-17.29-2.39-2.38-5.51-3.56-8.64-3.56s-6.25,1.19-8.64,3.57c-4.76,4.76-4.76,12.52,0,17.28,4.77,4.76,12.51,4.76,17.28,0Z"/>
    </g>
  </g>
</svg>