<?xml version="1.0" encoding="UTF-8"?>
<svg id="Layer_2" data-name="Layer 2" xmlns="http://www.w3.org/2000/svg" viewBox="0 0 555.24 555.24">
  <defs>
    <style>
      .cls-1 {
        fill: #043231;
      }

      .cls-2 {
        fill: #00af67;
      }

      .cls-3 {
        fill: #fbf9f3;
      }
    </style>
  </defs>
  <g id="DESIGNED_BY_Kim_Zamorano" data-name="DESIGNED BY Kim Zamorano">
    <g>
      <circle class="cls-3" cx="277.62" cy="277.62" r="277.62"/>
      <path class="cls-2" d="M278.04,511.93c-62.59.11-121.47-24.15-165.81-68.33-44.34-44.18-68.82-102.98-68.93-165.56-.11-62.59,24.15-121.47,68.33-165.81s102.98-68.82,165.56-68.93c62.59-.11,121.47,24.15,165.81,68.33,44.34,44.18,68.82,102.98,68.93,165.56.11,62.59-24.15,121.47-68.33,165.81-44.18,44.34-102.98,68.82-165.56,68.93ZM277.21,51.3c-60.45.11-117.24,23.75-159.91,66.58-42.67,42.82-66.11,99.7-66,160.15.11,60.45,23.75,117.24,66.58,159.91,42.82,42.67,99.7,66.11,160.15,66,60.45-.11,117.24-23.75,159.91-66.58,42.67-42.82,66.11-99.7,66-160.15-.11-60.45-23.75-117.24-66.58-159.91-42.82-42.67-99.7-66.11-160.15-66Z"/>
      <g>
        <path class="cls-1" d="M360.27,287.6h-33.23c-2.17,0-3.93-1.76-3.93-3.93v-33.77c0-1.17-.96-2.13-2.13-2.13h-142.22c-2.17,0-3.93-1.76-3.93-3.93v-33.23c0-2.17,1.76-3.93,3.93-3.93h38.58c2.17,0,3.93,1.76,3.93,3.93s-1.76,3.93-3.93,3.93h-34.65v25.36h138.29c5.51,0,10,4.48,10,10v29.83h25.37v-47.91c0-9.53-7.75-17.28-17.29-17.28h-68.37c-2.17,0-3.93-1.76-3.93-3.93s1.76-3.93,3.93-3.93h68.37c13.87,0,25.15,11.28,25.15,25.15v51.84c0,2.17-1.76,3.93-3.93,3.93h0Z"/>
        <path class="cls-1" d="M270.67,225.37c-2.17,0-3.93-1.76-3.93-3.93v-13.14c0-1.17-.96-2.13-2.13-2.13h-41.22c-1.17,0-2.13.96-2.13,2.13v13.14c0,2.17-1.76,3.93-3.93,3.93s-3.93-1.76-3.93-3.93v-13.14c0-5.51,4.48-10,10-10h41.22c5.51,0,10,4.48,10,10v13.14c0,2.17-1.76,3.93-3.93,3.93h0Z"/>
        <path class="cls-1" d="M250.4,206.16h-12.79c-1.74,0-3.27-1.14-3.77-2.81l-6.06-20.36c-.35-1.19-.12-2.48.62-3.47.74-1,1.91-1.58,3.15-1.58h24.91c1.24,0,2.41.59,3.15,1.58.74,1,.97,2.28.62,3.47l-6.06,20.36c-.5,1.67-2.03,2.81-3.77,2.81ZM240.54,198.3h6.92l3.72-12.49h-14.36l3.72,12.49Z"/>
        <path class="cls-1" d="M270.11,185.8h-52.22c-5.9,0-10.71-4.8-10.71-10.71s4.8-10.71,10.71-10.71h52.22c5.9,0,10.71,4.8,10.71,10.71s-4.8,10.71-10.71,10.71h0ZM217.89,172.26c-1.57,0-2.84,1.28-2.84,2.84s1.28,2.84,2.84,2.84h52.22c1.57,0,2.84-1.28,2.84-2.84s-1.28-2.84-2.84-2.84h-52.22Z"/>
        <path class="cls-1" d="M365.45,303.21h-43.6c-3.84,0-6.96-3.13-6.96-6.96v-9.55c0-3.84,3.12-6.97,6.96-6.97h43.6c3.84,0,6.96,3.13,6.96,6.97v9.55c0,3.84-3.13,6.96-6.96,6.96ZM322.75,295.35h41.8v-7.75h-41.8v7.75Z"/>
        <path class="cls-1" d="M178.75,336.54c-2.17,0-3.93-1.76-3.93-3.93v-147.04c0-2.17,1.76-3.93,3.93-3.93s3.93,1.76,3.93,3.93v147.04c0,2.17-1.76,3.93-3.93,3.93Z"/>
        <path class="cls-1" d="M328.28,362.62c-.69,0-1.37-.03-2.04-.09-7.08-.64-13.12-4.94-16.18-11.5-3.17-6.81-2.5-14.83,1.75-20.94l13.24-19.04c1.47-2.11,4.99-2.11,6.46,0l13.25,19.04c4.25,6.11,4.92,14.14,1.75,20.94-3.06,6.56-9.1,10.86-16.17,11.5-.68.06-1.36.09-2.05.09h0ZM328.28,320.18l-10.02,14.4c-2.66,3.82-3.07,8.85-1.08,13.12,1.89,4.05,5.44,6.6,9.75,6.99.87.08,1.8.08,2.69,0,4.3-.39,7.85-2.93,9.74-6.98,1.99-4.28,1.58-9.31-1.08-13.13,0,0-10.02-14.4-10.02-14.4h0Z"/>
        <path class="cls-1" d="M352.39,390.85c-.97,0-1.93-.04-2.87-.13-7.47-.67-14.15-4.29-18.82-10.18-4.96-6.27-7.15-14.44-6.01-22.42.27-1.92,1.9-3.35,3.84-3.38.37,0,.74-.02,1.1-.05,4.01-.36,7.44-2.67,9.39-6.32,2.12-3.96,2.12-8.66,0-12.55-.71-1.31-.62-2.9.23-4.13l9.9-14.23c1.47-2.11,4.99-2.11,6.46,0l19.61,28.19c5.91,8.5,6.84,19.66,2.43,29.13-4.24,9.1-12.62,15.05-22.4,15.93-.94.09-1.89.13-2.86.13h0ZM332.26,362.26c0,4.85,1.61,9.6,4.61,13.39,3.31,4.18,8.06,6.75,13.37,7.23,1.44.14,2.89.14,4.3,0,7.08-.64,12.9-4.8,15.99-11.42,3.24-6.94,2.56-15.11-1.75-21.31,0,0-16.38-23.55-16.38-23.55l-5.38,7.73c2.28,5.72,1.93,12.19-1.05,17.75-2.91,5.45-7.84,9.07-13.71,10.18Z"/>
      </g>
    </g>
  </g>
</svg>