<?xml version="1.0" encoding="UTF-8"?>
<svg id="Layer_2" data-name="Layer 2" xmlns="http://www.w3.org/2000/svg" viewBox="0 0 1556.01 769.73">
  <defs>
    <style>
      .cls-1 {
        fill: #043231;
      }

      .cls-2 {
        fill: #00af67;
      }
    </style>
  </defs>
  <g id="DESIGNED_BY_Kim_Zamorano" data-name="DESIGNED BY Kim Zamorano">
    <g>
      <g>
        <g>
          <path class="cls-1" d="M152.97,568.69l-52.71,130.54-52.72-130.54H0l81.35,196.59h37.73l81.45-196.59h-47.55Z"/>
          <path class="cls-1" d="M213.44,617.79v147.5h40.93v-147.5h-40.93Z"/>
          <path class="cls-1" d="M341.71,613.45c-45.27,0-76.38,34.94-76.38,78.14v73.7h40.93v-73.7c0-20.98,15.71-38.24,36.07-40.62v-37.52h-.62Z"/>
          <path class="cls-1" d="M435.15,652.83v-35.04h-40.93v-49.1h-40.93v122.9c0,43.1,31.11,78.14,76.49,78.14h5.37v-37.21c-22.64,0-40.93-18.3-40.93-40.93v-38.76h40.93Z"/>
          <path class="cls-1" d="M554.84,617.79v73.8c0,22.64-11.16,40.93-33.9,40.93s-33.8-18.3-33.8-40.93v-73.8h-41.03v73.8c0,43.1,29.56,78.14,74.83,78.14s74.94-35.04,74.94-78.14v-73.8h-41.03Z"/>
          <path class="cls-1" d="M681.36,678.46c-15.81-1.86-33.9-8.78-33.9-17.47,0-9.82,8.48-13.13,17.47-13.13s17.57,3.31,17.57,15.81h40.93c0-31.63-26.77-50.23-58.5-50.23s-58.4,18.61-58.4,48.58c0,23.26,27.6,40.72,56.23,44.34,12.3,1.55,21.29,7.85,21.29,14.68,0,9.61-10.03,14.26-19.12,14.26s-19.12-3.31-19.12-15.92h-40.93c0,31.73,28.42,50.34,60.05,50.34s60.16-18.61,60.16-50.34c0-24.81-22.12-38.45-43.72-40.93Z"/>
          <path class="cls-1" d="M835.99,650.04v31.73h67.5c-6.92,27.8-31.73,48.58-61.81,48.58-34.94,0-63.36-28.42-63.36-63.36s28.42-63.36,63.36-63.36c18.3,0,37.42,7.96,49.2,20.15h50.85c-17.26-35.14-56.85-59.53-100.05-59.53-59.23,0-107.08,45.89-107.08,102.74s47.86,102.74,107.08,102.74c68.01,0,107.08-51.37,107.08-109.25v-10.44h-112.77Z"/>
          <path class="cls-1" d="M1037.65,613.45c-45.37,0-76.49,34.94-76.49,78.14v73.7h40.93v-73.7c0-22.64,18.3-40.93,41.03-40.93v-37.21h-5.48Z"/>
          <path class="cls-1" d="M1218.02,691.59c0-43.2-36.59-78.14-81.96-78.14s-81.97,34.94-81.97,78.14,36.69,78.14,81.97,78.14c36.07,0,66.67-22.12,77.62-53.02h-45.38c-7.34,9.61-19.12,15.81-32.25,15.81-17.67,0-32.46-11.16-38.45-26.77h119.07c.83-4.65,1.35-9.3,1.35-14.16ZM1097.6,677.32c6-15.5,20.78-26.67,38.45-26.67s32.56,11.16,38.55,26.67h-77.01Z"/>
          <path class="cls-1" d="M1392.08,691.59c0-43.2-36.59-78.14-81.96-78.14s-81.96,34.94-81.96,78.14,36.69,78.14,81.96,78.14c36.07,0,66.67-22.12,77.62-53.02h-45.37c-7.34,9.61-19.12,15.81-32.25,15.81-17.78,0-32.46-11.16-38.45-26.77h119.07c.83-4.65,1.34-9.3,1.34-14.16ZM1271.66,677.32c5.99-15.5,20.67-26.67,38.45-26.67s32.56,11.16,38.55,26.67h-77Z"/>
          <path class="cls-1" d="M1479.52,613.45c-45.27,0-76.49,34.94-76.49,78.14v73.7h41.03v-73.7c0-22.64,12.82-40.93,35.45-40.93s35.56,18.3,35.56,40.93v73.7h40.93v-73.7c0-43.2-31.11-78.14-76.49-78.14Z"/>
        </g>
        <path class="cls-2" d="M230.89,568.69h23.48v20.15c0,9.63-7.82,17.45-17.45,17.45h-23.48v-20.15c0-9.63,7.82-17.45,17.45-17.45Z" transform="translate(467.81 1174.98) rotate(180)"/>
      </g>
      <path class="cls-2" d="M613.28,210.84c0-5.5-2.13-10.65-6.03-14.54-4.02-4.01-9.27-6.01-14.54-6.01s-10.53,2-14.54,6.01c-8,8.02-8,21.06,0,29.08,8.03,8.02,21.05,8.02,29.09,0,3.89-3.88,6.03-9.05,6.03-14.53ZM785.28,107.33c8.02-8.02,8.02-21.07,0-29.09-8.03-8.02-21.05-8.02-29.09,0-8,8.03-8,21.07,0,29.1,8.03,8,21.05,8.01,29.09,0ZM737.16,0c-127.44,0-230.76,103.32-230.76,230.76v221.71l65.72-55.47,5.89-140.59c-7.05-2.26-13.72-5.97-19.31-11.56-18.74-18.75-18.74-49.26,0-68.02,18.76-18.76,49.28-18.77,68.04,0,9.09,9.09,14.1,21.17,14.1,34.02s-5,24.93-14.1,34.01c-5.58,5.58-12.25,9.29-19.3,11.55l4.48,106.98,72.06-60.82,8.63-145.6.35-5.87,3.69-3.69,31.94-31.94c-9.76-18.22-7.19-41.35,8.14-56.7h0c18.76-18.77,49.28-18.77,68.04,0,18.76,18.76,18.76,49.28,0,68.04-9.38,9.38-21.7,14.06-34.02,14.06-7.85,0-15.6-2.12-22.69-5.91l-27.73,27.73,3.51,106.24,174.96-147.69c-9.19-18.07-6.46-40.69,8.63-55.79,18.76-18.76,49.28-18.76,68.04,0,18.74,18.76,18.74,49.28,0,68.03h0c-9.38,9.39-21.7,14.07-34.02,14.07-7.94,0-15.78-2.16-22.93-6.04l-242.95,232.45,143.3,4.91,27.71-27.7c-3.75-6.93-5.94-14.61-5.94-22.7,0-12.86,5-24.94,14.1-34.02,18.76-18.76,49.28-18.76,68.04,0,18.74,18.76,18.74,49.27,0,68.03-9.38,9.38-21.7,14.07-34.02,14.07-7.85,0-15.6-2.12-22.69-5.92l-31.94,31.94-3.72,3.73-5.83.3-193.86,10.27-84.02,80.39h272.14c127.45,0,230.76-103.32,230.76-230.76V0h-312.46ZM903.3,343c8.02-8.02,8.02-21.06,0-29.08-4.02-4.01-9.27-6.01-14.54-6.01s-10.53,2-14.54,6.01c-3.89,3.88-6.03,9.05-6.03,14.54s2.13,10.65,6.03,14.53c8.03,8.02,21.05,8.02,29.09,0ZM955.99,114.01c8-8.03,8-21.07,0-29.1-4.02-4-9.27-6-14.54-6s-10.53,2-14.54,6.01c-8.02,8.02-8.02,21.07,0,29.09,8.03,8.02,21.05,8.02,29.09,0Z"/>
    </g>
  </g>
</svg>