<?xml version="1.0" encoding="UTF-8"?>
<svg id="Layer_2" data-name="Layer 2" xmlns="http://www.w3.org/2000/svg" viewBox="0 0 555.24 555.24">
  <defs>
    <style>
      .cls-1 {
        fill: #043231;
      }

      .cls-2 {
        fill: #00af67;
      }

      .cls-3 {
        fill: #fbf9f3;
      }
    </style>
  </defs>
  <g id="DESIGNED_BY_Kim_Zamorano" data-name="DESIGNED BY Kim Zamorano">
    <g>
      <circle class="cls-3" cx="277.62" cy="277.62" r="277.62"/>
      <path class="cls-2" d="M277.19,511.93c62.59.11,121.47-24.15,165.81-68.33,44.34-44.18,68.82-102.98,68.93-165.56.11-62.59-24.15-121.47-68.33-165.81-44.18-44.34-102.97-68.82-165.56-68.93-62.59-.11-121.47,24.15-165.81,68.33-44.34,44.18-68.82,102.98-68.93,165.56-.11,62.59,24.15,121.47,68.33,165.81,44.18,44.34,102.98,68.82,165.56,68.93ZM278.03,51.3c60.45.11,117.24,23.75,159.91,66.58,42.67,42.82,66.11,99.7,66,160.15s-23.75,117.24-66.58,159.91c-42.82,42.67-99.7,66.11-160.15,66-60.45-.11-117.24-23.75-159.91-66.58-42.67-42.82-66.11-99.7-66-160.15.11-60.45,23.75-117.24,66.58-159.91,42.82-42.67,99.7-66.11,160.15-66Z"/>
      <g>
        <path class="cls-1" d="M172.97,236.18c-2.13,0-3.86-1.73-3.86-3.86v-46c0-9.51,7.7-17.22,17.21-17.23h49.61c2.13,0,3.86,1.73,3.86,3.86s-1.73,3.86-3.86,3.86h-49.61c-5.24.01-9.48,4.27-9.48,9.5v46c0,2.13-1.73,3.86-3.86,3.86Z"/>
        <path class="cls-1" d="M235.92,386.16h-49.61c-9.5-.01-17.19-7.71-17.21-17.21v-41.21c0-2.13,1.73-3.86,3.86-3.86s3.86,1.73,3.86,3.86v41.21c0,5.23,4.24,9.48,9.48,9.48h49.61c2.13,0,3.86,1.73,3.86,3.86s-1.73,3.86-3.86,3.86Z"/>
        <path class="cls-1" d="M368.95,386.16h-47.65c-2.13,0-3.86-1.73-3.86-3.86s1.73-3.86,3.86-3.86h47.65c5.24,0,9.49-4.24,9.5-9.48v-43.79c0-2.13,1.73-3.86,3.86-3.86s3.86,1.73,3.86,3.86v43.79c-.01,9.51-7.72,17.21-17.23,17.21Z"/>
        <path class="cls-1" d="M382.32,236.18c-2.13,0-3.86-1.73-3.86-3.86v-46c0-5.25-4.26-9.5-9.5-9.5h-47.65c-2.13,0-3.86-1.73-3.86-3.86s1.73-3.86,3.86-3.86h47.65c9.51.01,17.22,7.72,17.23,17.23v46c0,2.13-1.73,3.86-3.86,3.86Z"/>
        <path class="cls-1" d="M387.34,281.48h-219.45c-2.13,0-3.86-1.73-3.86-3.86s1.73-3.86,3.86-3.86h219.45c2.13,0,3.86,1.73,3.86,3.86s-1.73,3.86-3.86,3.86Z"/>
      </g>
    </g>
  </g>
</svg>