<?xml version="1.0" encoding="UTF-8"?>
<svg id="Layer_2" data-name="Layer 2" xmlns="http://www.w3.org/2000/svg" viewBox="0 0 555.24 555.24">
  <defs>
    <style>
      .cls-1 {
        fill: #043231;
      }

      .cls-2 {
        fill: #00af67;
      }

      .cls-3 {
        fill: #fbf9f3;
      }
    </style>
  </defs>
  <g id="DESIGNED_BY_Kim_Zamorano" data-name="DESIGNED BY Kim Zamorano">
    <g>
      <circle class="cls-3" cx="277.62" cy="277.62" r="277.62"/>
      <path class="cls-2" d="M278.04,511.93c-62.59.11-121.47-24.15-165.81-68.33-44.34-44.18-68.82-102.98-68.93-165.56-.11-62.59,24.15-121.47,68.33-165.81,44.18-44.34,102.98-68.82,165.56-68.93,62.59-.11,121.47,24.15,165.81,68.33,44.34,44.18,68.82,102.98,68.93,165.56.11,62.59-24.15,121.47-68.33,165.81-44.18,44.34-102.98,68.82-165.56,68.93ZM277.21,51.3c-60.45.11-117.24,23.75-159.91,66.58-42.67,42.82-66.11,99.7-66,160.15.11,60.45,23.75,117.24,66.58,159.91,42.82,42.67,99.7,66.11,160.15,66,60.45-.11,117.24-23.75,159.91-66.58,42.67-42.82,66.11-99.7,66-160.15-.11-60.45-23.75-117.24-66.58-159.91-42.82-42.67-99.7-66.11-160.15-66Z"/>
      <g>
        <path class="cls-1" d="M235.89,173.3c-6.48,0-12.23,3.6-15.22,9.09-2.82-1.38-5.91-2.14-9.12-2.14-11.51,0-20.86,9.36-20.86,20.86,0,10.32,7.54,18.88,17.39,20.55v7.27h6.95v-6.95h10.43v-6.95h-13.91c-7.67,0-13.91-6.24-13.91-13.91s6.24-13.91,13.91-13.91c3.04,0,5.93.96,8.34,2.78,3.54,2.66,5.57,6.71,5.57,11.13h6.95c0-5.59-2.19-10.79-6.06-14.67,1.65-3.72,5.35-6.19,9.53-6.19,5.75,0,10.43,4.68,10.43,10.43h6.95c0-9.59-7.8-17.39-17.39-17.39ZM222.05,187.12l-.07.09.07-.09Z"/>
        <path class="cls-1" d="M368.03,173.3c-4.61,0-8.76,2.24-11.3,5.86-2.95-1.56-6.2-2.38-9.56-2.38-10.46,0-19.12,7.75-20.61,17.8-6.11,1.46-10.68,6.94-10.68,13.49h6.95c0-3.84,3.12-6.95,6.95-6.95s6.95,3.12,6.95,6.95h6.95c0-6.35-4.3-11.66-10.12-13.32,1.34-6.29,6.92-11.02,13.6-11.02,3.16,0,6.17,1.1,8.72,3.18.9.73,2.11.97,3.21.63,1.11-.34,1.98-1.21,2.31-2.32.89-2.97,3.55-4.97,6.61-4.97,3.84,0,6.95,3.12,6.95,6.95h6.95c0-7.67-6.24-13.91-13.91-13.91Z"/>
        <path class="cls-1" d="M342.99,256.35c1.38.27,2.76.4,4.14.4,4.84,0,9.53-1.65,13.29-4.75,3.93-3.23,6.49-7.71,7.32-12.63,3.19.07,6.24-1.04,9.18-3.33,3.14-2.46,5.02-6.41,5.02-10.58h-6.95c0,2.04-.88,3.95-2.34,5.09-3.04,2.37-5.22,2.04-6.97,1.41-1.08-.4-2.3-.22-3.24.46-.94.68-1.47,1.78-1.43,2.94,0,.12.05.41.06.53,0,4.17-1.85,8.09-5.07,10.74-3.27,2.69-7.42,3.72-11.67,2.89-6.42-1.25-11.07-7.3-11.07-14.38v-.99c0-6.71-5.46-12.17-12.17-12.17s-12.17,5.46-12.17,12.17v8.69h-13.91v-17.39h-6.95v17.39h-6.95c-1.92,0-3.48,1.56-3.48,3.48v12.62c0,9.79-1.28,19.54-3.78,28.92l-6.92,23.94-6.36-23.87c-2.52-9.44-3.8-19.2-3.8-28.99v-19.57c0-1.92-1.56-3.48-3.48-3.48h-48.68c-1.92,0-3.48,1.56-3.48,3.48v19.57c0,9.79-1.28,19.54-3.8,28.99l-23.9,89.63c-.28,1.04-.06,2.16.6,3.01s1.68,1.36,2.76,1.36h201.68c1.92,0,3.48-1.56,3.48-3.48v-13.91c0-.92-.37-1.81-1.02-2.46l-17.39-17.39c-.65-.65-1.54-1.02-2.46-1.02h-14.85l-16.12-55.75c-2.52-9.45-3.8-19.2-3.8-28.99v-12.62c0-1.92-1.56-3.48-3.48-3.48h-6.95v-8.69c0-2.88,2.34-5.22,5.22-5.22s5.22,2.34,5.22,5.22v.99c0,10.4,7.02,19.31,16.69,21.2h0ZM181.3,374.98l22.73-85.26c1.37-5.12,2.38-10.33,3.05-15.58h32.28v-6.95h-31.59c.16-2.31.23-4.63.26-6.95h24.38v-6.95h-24.34v-10.43h41.73v16.09c0,10.39,1.36,20.75,4.03,30.78l9.34,35.03-.17.58.35.1,13.21,49.55h-95.26ZM277.28,350.64h75.4l-10.43,10.43h-26.38v6.95h24.34v6.95h-56.44l-6.49-24.34ZM347.16,374.98v-6.95h27.82v6.95h-27.82ZM370.06,361.07h-17.98l8.99-8.99,8.99,8.99ZM323.4,289.79l15.58,53.89h-63.56l-5.03-18.86,10.15-35.1c1.06-3.99,1.86-8.04,2.5-12.1h29.35v-6.95h-28.46c.23-2.31.39-4.63.48-6.95h21.02v-6.95h-20.86v-6.95h34.77v9.14c0,10.39,1.36,20.75,4.05,30.85h0Z"/>
        <path class="cls-1" d="M246.32,208.07h6.95c0-3.04.96-5.93,2.78-8.35l-5.56-4.18c-2.73,3.63-4.17,7.96-4.17,12.52Z"/>
        <path class="cls-1" d="M297.99,211.23c-4.12.88-8.23-.09-11.58-2.74-.96-.76-2.24-.96-3.39-.53-1.14.43-1.98,1.43-2.2,2.63-.84,4.62-3.93,8.47-8.25,10.3-2.12.9-4.77.29-6.58-1.52l-3.92-3.92c-2.51-2.51-5.85-3.9-9.41-3.9-7.34,0-13.31,5.97-13.31,13.31v7.55h6.95v-7.55c0-3.51,2.85-6.36,6.36-6.36,1.7,0,3.29.66,4.5,1.86l3.92,3.92c3.8,3.8,9.5,5,14.21,3.01,4.95-2.1,8.82-5.97,10.93-10.77,4.09,1.95,8.64,2.48,13.22,1.5,7.99-1.72,14.42-8.21,15.99-16.15,1.24-6.25-.33-12.62-4.32-17.47-3.98-4.85-9.86-7.63-16.13-7.63-8.39,0-15.78,5-19.05,12.41-2.74-1.3-5.71-1.98-8.77-1.98v6.95c3.09,0,6.06,1.06,8.59,3.06.96.76,2.25.96,3.38.53,1.14-.43,1.98-1.43,2.2-2.63,1.21-6.61,6.95-11.4,13.65-11.4,4.18,0,8.1,1.85,10.76,5.09,2.69,3.28,3.71,7.43,2.87,11.7-1.04,5.26-5.31,9.56-10.63,10.71h0Z"/>
      </g>
    </g>
  </g>
</svg>