<?xml version="1.0" encoding="UTF-8"?>
<svg id="Layer_2" data-name="Layer 2" xmlns="http://www.w3.org/2000/svg" viewBox="0 0 555.24 555.24">
  <defs>
    <style>
      .cls-1 {
        fill: #043231;
      }

      .cls-2 {
        fill: #00af67;
      }

      .cls-3 {
        fill: #fbf9f3;
      }
    </style>
  </defs>
  <g id="DESIGNED_BY_Kim_Zamorano" data-name="DESIGNED BY Kim Zamorano">
    <g>
      <circle class="cls-3" cx="277.62" cy="277.62" r="277.62"/>
      <path class="cls-2" d="M278.04,511.94c-62.59.11-121.47-24.15-165.81-68.33-44.34-44.18-68.82-102.98-68.93-165.56-.11-62.59,24.15-121.47,68.33-165.81,44.18-44.34,102.97-68.82,165.56-68.93,62.59-.11,121.47,24.15,165.81,68.33,44.34,44.18,68.82,102.98,68.93,165.56.11,62.59-24.15,121.47-68.33,165.81-44.18,44.34-102.98,68.82-165.56,68.93ZM277.21,51.3c-60.45.11-117.24,23.75-159.91,66.58-42.67,42.82-66.11,99.7-66,160.15.11,60.45,23.75,117.24,66.58,159.91,42.82,42.67,99.7,66.11,160.15,66,60.45-.11,117.24-23.75,159.91-66.58,42.67-42.82,66.11-99.7,66-160.15-.11-60.45-23.75-117.24-66.58-159.91-42.82-42.67-99.7-66.11-160.15-66Z"/>
      <g>
        <path class="cls-1" d="M253.8,358.87c.5.23,1.03.34,1.56.34,1.16,0,2.3-.55,3.01-1.54l66.76-92.73c.81-1.13.93-2.62.29-3.86-.64-1.24-1.91-2.02-3.3-2.02h-33.23l14.58-58.45c.43-1.73-.42-3.52-2.04-4.26-1.62-.75-3.54-.25-4.57,1.2l-66.76,92.73c-.81,1.13-.93,2.62-.29,3.86.64,1.24,1.91,2.02,3.3,2.02h33.23l-14.58,58.45c-.43,1.73.42,3.52,2.04,4.26ZM274.69,293.35c.28-1.11.03-2.28-.68-3.18s-1.78-1.43-2.92-1.43h-30.74l51.25-71.18-11.06,44.32c-.28,1.11-.03,2.28.68,3.18s1.78,1.43,2.92,1.43h30.74l-51.25,71.18,11.06-44.32Z"/>
        <path class="cls-1" d="M385.18,273.91c-2.05,0-3.71,1.66-3.71,3.71,0,57.27-46.59,103.85-103.85,103.85-30.66,0-59.84-13.75-79.48-37.09h20.14c2.05,0,3.71-1.66,3.71-3.71s-1.66-3.71-3.71-3.71h-29.67c-2.05,0-3.71,1.66-3.71,3.71v29.67c0,2.05,1.66,3.71,3.71,3.71s3.71-1.66,3.71-3.71v-21.36c21.05,25.11,52.38,39.91,85.31,39.91,61.36,0,111.27-49.92,111.27-111.27,0-2.05-1.66-3.71-3.71-3.71Z"/>
        <path class="cls-1" d="M277.62,173.76c30.66,0,59.84,13.75,79.48,37.09h-20.14c-2.05,0-3.71,1.66-3.71,3.71s1.66,3.71,3.71,3.71h29.67c2.05,0,3.71-1.66,3.71-3.71v-29.67c0-2.05-1.66-3.71-3.71-3.71s-3.71,1.66-3.71,3.71v21.36c-21.05-25.11-52.38-39.91-85.31-39.91-61.36,0-111.27,49.92-111.27,111.27,0,2.05,1.66,3.71,3.71,3.71s3.71-1.66,3.71-3.71c0-57.27,46.59-103.85,103.85-103.85Z"/>
      </g>
    </g>
  </g>
</svg>