<?xml version="1.0" encoding="UTF-8"?>
<svg id="Layer_2" data-name="Layer 2" xmlns="http://www.w3.org/2000/svg" xmlns:xlink="http://www.w3.org/1999/xlink" viewBox="0 0 212.04 212.04">
  <defs>
    <style>
      .cls-1 {
        fill: none;
      }

      .cls-2 {
        fill: #00af67;
      }

      .cls-3 {
        clip-path: url(#clippath);
      }
    </style>
    <clipPath id="clippath">
      <rect class="cls-1" width="212.04" height="212.04"/>
    </clipPath>
  </defs>
  <g id="DESIGNED_BY_Kim_Zamorano" data-name="DESIGNED BY Kim Zamorano">
    <g class="cls-3">
      <g id="jLj9bb">
        <path class="cls-2" d="M190.57,106.13c0,22.21.08,44.42-.04,66.62-.04,7.17-3.67,12.43-9.91,15.85-2.67,1.46-5.57,2-8.64,2-44.11-.03-88.21-.04-132.32,0-7.2,0-14.29-4.73-16.98-11.81-.83-2.18-1.25-4.44-1.25-6.8.02-44.05.02-88.11,0-132.16,0-8.6,6.21-16.1,14.15-17.9,1.37-.31,2.73-.49,4.13-.49,44.26,0,88.52.03,132.78-.01,7.68,0,15.51,5.58,17.53,13.79.38,1.53.54,3.03.54,4.59-.01,22.1,0,44.21,0,66.31ZM60.09,61.87c5.21,31.25,10.38,62.26,15.53,93.14.8.32,1.38.24,1.94.25,11.21,0,22.42,0,33.63,0q3.33,0,5.31-2.66c7.29-9.84,14.26-19.89,20.33-30.54,4.99-8.75,9.46-17.74,12.46-27.41,1.51-4.88,2.66-9.81,3.02-14.94.36-5.15.11-10.2-1.32-15.16-.79-2.73-1.84-5.35-3.39-7.69-1.68-.3-29.26,5.38-30.72,6.12.01.18-.02.4.06.58,1.37,3.15,2.12,6.44,2.51,9.86.48,4.24.42,8.46-.34,12.64-.95,5.19-2.62,10.19-4.56,15.09-3.1,7.85-6.96,15.31-11.22,22.58-.22.38-.32.91-1.2.95-2.83-21.97-5.38-43.99-8.27-66.03-11.35,1.08-22.44,2.15-33.76,3.23Z"/>
      </g>
    </g>
  </g>
</svg>