<?xml version="1.0" encoding="UTF-8"?>
<svg id="Layer_2" data-name="Layer 2" xmlns="http://www.w3.org/2000/svg" viewBox="0 0 985.42 985.42">
  <defs>
    <style>
      .cls-1 {
        fill: #043231;
      }

      .cls-2 {
        fill: #00af67;
      }

      .cls-3 {
        fill: #fbf9f3;
      }
    </style>
  </defs>
  <g id="DESIGNED_BY_Kim_Zamorano" data-name="DESIGNED BY Kim Zamorano">
    <g>
      <circle class="cls-3" cx="492.71" cy="492.71" r="492.71"/>
      <g>
        <g>
          <g>
            <path class="cls-1" d="M152.29,547.97l-28.71,71.1-28.71-71.1h-25.9l44.3,107.07h20.55l44.36-107.07h-25.9Z"/>
            <path class="cls-1" d="M185.23,574.71v80.33h22.29v-80.33h-22.29Z"/>
            <path class="cls-1" d="M255.09,572.34c-24.66,0-41.6,19.03-41.6,42.56v40.14h22.29v-40.14c0-11.43,8.56-20.83,19.65-22.12v-20.44h-.34Z"/>
            <path class="cls-1" d="M305.98,593.79v-19.08h-22.29v-26.74h-22.29v66.93c0,23.47,16.94,42.56,41.66,42.56h2.93v-20.27c-12.33,0-22.29-9.96-22.29-22.29v-21.11h22.29Z"/>
            <path class="cls-1" d="M371.17,574.71v40.19c0,12.33-6.08,22.29-18.46,22.29s-18.41-9.96-18.41-22.29v-40.19h-22.35v40.19c0,23.47,16.1,42.56,40.76,42.56s40.81-19.08,40.81-42.56v-40.19h-22.35Z"/>
            <path class="cls-1" d="M440.07,607.75c-8.61-1.01-18.46-4.78-18.46-9.51,0-5.35,4.62-7.15,9.51-7.15s9.57,1.8,9.57,8.61h22.29c0-17.23-14.58-27.36-31.86-27.36s-31.81,10.13-31.81,26.46c0,12.67,15.03,22.18,30.62,24.15,6.7.84,11.6,4.28,11.6,7.99,0,5.24-5.46,7.77-10.42,7.77s-10.41-1.8-10.41-8.67h-22.29c0,17.28,15.48,27.42,32.71,27.42s32.76-10.13,32.76-27.42c0-13.51-12.05-20.94-23.81-22.29Z"/>
            <path class="cls-1" d="M524.29,592.27v17.28h36.76c-3.77,15.14-17.28,26.46-33.66,26.46-19.03,0-34.51-15.48-34.51-34.51s15.48-34.51,34.51-34.51c9.96,0,20.38,4.33,26.8,10.98h27.7c-9.4-19.14-30.96-32.42-54.49-32.42-32.26,0-58.32,24.99-58.32,55.96s26.07,55.96,58.32,55.96c37.04,0,58.32-27.98,58.32-59.5v-5.69h-61.42Z"/>
            <path class="cls-1" d="M634.13,572.34c-24.71,0-41.66,19.03-41.66,42.56v40.14h22.29v-40.14c0-12.33,9.96-22.29,22.35-22.29v-20.27h-2.98Z"/>
            <path class="cls-1" d="M732.36,614.9c0-23.53-19.93-42.56-44.64-42.56s-44.64,19.03-44.64,42.56,19.98,42.56,44.64,42.56c19.65,0,36.31-12.05,42.28-28.88h-24.71c-4,5.24-10.41,8.61-17.56,8.61-9.63,0-17.68-6.08-20.94-14.58h64.85c.45-2.53.73-5.07.73-7.71ZM666.78,607.14c3.27-8.44,11.32-14.52,20.94-14.52s17.73,6.08,21,14.52h-41.94Z"/>
            <path class="cls-1" d="M827.16,614.9c0-23.53-19.93-42.56-44.64-42.56s-44.64,19.03-44.64,42.56,19.98,42.56,44.64,42.56c19.65,0,36.31-12.05,42.28-28.88h-24.71c-4,5.24-10.42,8.61-17.56,8.61-9.68,0-17.68-6.08-20.94-14.58h64.85c.45-2.53.73-5.07.73-7.71ZM761.58,607.14c3.26-8.44,11.26-14.52,20.94-14.52s17.73,6.08,21,14.52h-41.94Z"/>
            <path class="cls-1" d="M874.79,572.34c-24.66,0-41.66,19.03-41.66,42.56v40.14h22.35v-40.14c0-12.33,6.98-22.29,19.31-22.29s19.37,9.96,19.37,22.29v40.14h22.29v-40.14c0-23.53-16.94-42.56-41.66-42.56Z"/>
          </g>
          <path class="cls-2" d="M194.73,547.97h12.79v10.97c0,5.24-4.26,9.5-9.5,9.5h-12.79v-10.97c0-5.24,4.26-9.5,9.5-9.5Z" transform="translate(392.74 1116.42) rotate(-180)"/>
        </g>
        <path class="cls-2" d="M403,353.07c0-2.99-1.16-5.8-3.28-7.92-2.19-2.18-5.05-3.27-7.92-3.27s-5.73,1.09-7.92,3.27c-4.36,4.37-4.36,11.47,0,15.84,4.38,4.37,11.47,4.37,15.84,0,2.12-2.11,3.28-4.93,3.28-7.92ZM496.67,296.69c4.37-4.37,4.37-11.48,0-15.84-4.38-4.37-11.47-4.37-15.84,0-4.36,4.37-4.36,11.48,0,15.85,4.38,4.36,11.47,4.36,15.84,0ZM470.46,238.24c-69.41,0-125.68,56.27-125.68,125.68v120.75l35.79-30.21,3.21-76.57c-3.84-1.23-7.47-3.25-10.51-6.29-10.21-10.21-10.21-26.83,0-37.05,10.22-10.22,26.84-10.22,37.06,0,4.95,4.95,7.68,11.53,7.68,18.53s-2.73,13.58-7.68,18.52c-3.04,3.04-6.67,5.06-10.51,6.29l2.44,58.27,39.24-33.13,4.7-79.3.19-3.2,2.01-2.01,17.4-17.4c-5.32-9.92-3.92-22.52,4.43-30.88h0c10.22-10.22,26.84-10.22,37.06,0,10.22,10.22,10.22,26.84,0,37.06-5.11,5.11-11.82,7.66-18.53,7.66-4.27,0-8.5-1.15-12.36-3.22l-15.1,15.1,1.91,57.87,95.29-80.44c-5.01-9.84-3.52-22.16,4.7-30.38,10.22-10.22,26.84-10.22,37.06,0,10.21,10.22,10.21,26.84,0,37.05h0c-5.11,5.11-11.82,7.66-18.53,7.66-4.32,0-8.6-1.17-12.49-3.29l-132.32,126.6,78.05,2.68,15.09-15.09c-2.04-3.77-3.23-7.96-3.23-12.37,0-7,2.73-13.58,7.68-18.53,10.22-10.22,26.84-10.22,37.06,0,10.21,10.22,10.21,26.84,0,37.05-5.11,5.11-11.82,7.66-18.53,7.66-4.27,0-8.5-1.15-12.36-3.22l-17.4,17.4-2.03,2.03-3.17.17-105.58,5.59-45.76,43.78h148.22c69.42,0,125.68-56.27,125.68-125.68v-145.14h-170.18ZM560.95,425.05c4.37-4.37,4.37-11.47,0-15.84-2.19-2.18-5.05-3.27-7.92-3.27s-5.73,1.09-7.92,3.27c-2.12,2.11-3.28,4.93-3.28,7.92s1.16,5.8,3.28,7.92c4.38,4.37,11.47,4.37,15.84,0ZM589.65,300.33c4.36-4.37,4.36-11.48,0-15.85-2.19-2.18-5.05-3.27-7.92-3.27s-5.73,1.09-7.92,3.27c-4.37,4.37-4.37,11.48,0,15.84,4.38,4.37,11.47,4.37,15.84,0Z"/>
      </g>
    </g>
  </g>
</svg>