<?xml version="1.0" encoding="UTF-8"?>
<svg id="Layer_2" data-name="Layer 2" xmlns="http://www.w3.org/2000/svg" xmlns:xlink="http://www.w3.org/1999/xlink" viewBox="0 0 212.04 212.04">
  <defs>
    <style>
      .cls-1 {
        fill: none;
      }

      .cls-2 {
        fill: #00af67;
      }

      .cls-3 {
        clip-path: url(#clippath);
      }
    </style>
    <clipPath id="clippath">
      <rect class="cls-1" width="212.04" height="212.04"/>
    </clipPath>
  </defs>
  <g id="DESIGNED_BY_Kim_Zamorano" data-name="DESIGNED BY Kim Zamorano">
    <g class="cls-3">
      <path class="cls-2" d="M116.62,145.58c-9.94-.77-14.11-5.7-21.9-10.43-3.47,18.22-7.57,35.82-17.26,47.83-2.82,3.49-8.51,1.74-8.74-2.75-1.46-29.02,8.56-52.06,13.48-76.36-9.35-15.74,1.12-47.43,20.85-39.62,24.28,9.6-21.02,58.54,9.39,64.65,31.75,6.38,44.71-55.08,25.02-75.08-28.45-28.86-82.8-.66-76.11,40.67,1.27,7.85,7.86,11.45,7.02,19.22-.52,4.82-5.49,7.6-9.89,5.55-12.59-5.89-16.5-18.78-15.9-35.19,1.13-31.33,28.15-53.27,55.26-56.31,34.29-3.84,66.47,12.59,70.91,44.84,5,36.4-15.48,75.82-52.14,72.99h0Z"/>
    </g>
  </g>
</svg>